<?xml version="1.0" encoding="UTF-8"?>
<!DOCTYPE svg PUBLIC "-//W3C//DTD SVG 1.1//EN" "http://www.w3.org/Graphics/SVG/1.1/DTD/svg11.dtd">
<svg version="1.1" xmlns="http://www.w3.org/2000/svg" xmlns:xlink="http://www.w3.org/1999/xlink" x="0" y="0" width="600" height="860" viewBox="0, 0, 600, 860">
  <g id="Layer_1">
    <path d="M87.804,599.389 C88.821,599.603 89.889,599.646 90.854,600.03 C95.513,601.882 96.561,607.637 95.004,611.908 C94.252,613.968 93.804,614.375 92.66,615.826 C74.278,636.179 50.028,648.998 37.674,675 C32.418,686.061 35.697,706.092 36.83,718 C38.806,738.759 37.228,760.017 38.914,781 C39.6,789.526 38.374,801.228 42.314,808.995 C48.658,821.5 71.446,817.865 83,819.285 C124.411,824.373 168.197,820 210,820 C221.332,820 236.129,815.197 246.996,818.653 C255.081,821.223 255.868,830.727 248.981,835.262 C240.865,840.605 229.743,836.016 221,835.17 C211.746,834.274 202.296,836 193,836 C156.68,836 120.237,836.698 84,835.104 C74.316,834.678 63.525,839.115 54,836.362 C45.916,834.025 41.788,826.49 35.985,821.104 C30.487,816.001 23.84,813.248 20.558,806 C15.594,795.038 20,778.697 20,767 L20,684 C20,673.026 17.077,656.973 22.442,647.015 C28.696,635.408 44.812,639.54 54,631.786 C60.726,626.111 68.045,619.132 73.215,612 C76.622,607.299 79.358,600.149 86,599.449 L87.804,599.389 z" fill="#870E00" fill-opacity="0.729"/>
    <path d="M567.312,182.293 C569.368,182.599 570.027,182.486 571.825,183.539 C580.111,188.392 578.515,204.675 577.597,212.426 C575.614,227.698 577.904,243.965 577.879,259.426 C577.841,283.122 576.164,306.695 577.79,330.426 C582.306,396.375 576.098,463.419 576.883,529.426 C577.378,571.097 576.879,612.696 576.879,654.426 C576.879,675.662 579.665,697.236 577.165,718.426 C575.135,735.629 575.407,756.178 577.049,773.426 C577.989,783.311 581.493,795.902 577.346,805.425 C573.968,813.181 565.862,815.919 560.347,821.726 C555.351,826.985 552.388,834.419 544.879,836.773 C537.278,839.156 528.52,836.326 520.879,835.596 C510.375,834.592 499.43,835.426 488.879,835.426 L349.879,835.426 C338.231,835.426 321.797,840.133 310.88,836.317 C304.216,833.988 298.05,824.84 305.107,819.129 C311.187,814.209 320.026,817.298 326.879,818.14 C336.204,819.285 345.571,817.643 354.879,817.411 C401.942,816.24 448.824,817.423 495.879,817.426 C511.236,817.427 549.779,828.232 556.63,808.425 C562.33,791.946 556.88,773.257 556.879,756.426 C556.878,736.933 559.645,717.779 559.875,698.426 C560.088,680.542 557.329,663.18 556.894,645.426 C556.424,626.269 559.03,607.448 559.03,588.426 C559.03,565.714 557.152,543.095 556.883,520.426 C556.514,489.413 559.7,458.438 559.7,427.426 C559.7,414.5 557.335,401.368 556.922,388.426 C556.365,370.957 560.777,353.9 558.455,336.426 C553.26,297.341 564.351,258.321 558.289,219.426 C556.843,210.153 548.834,186.58 562.884,182.864 C565.395,182.309 563.928,182.556 567.312,182.293 z" fill="#870E00" fill-opacity="0.729"/>
    <path d="M167,382.322 C177.151,381.806 183.888,395.861 194,397.671 C210.226,400.574 228.199,390.222 244,394.789 C255.746,398.184 254.151,408.593 261.278,415.722 C265.141,419.587 271.531,420.585 276,423.789 C284.1,429.596 294.267,440.993 298.597,450 C307.045,467.574 296.84,492.318 298.09,511 C300.427,545.96 295.436,581.406 298.464,616 C299.307,625.638 305.517,647.648 294.812,653.821 C289.385,656.95 283.085,653.459 279.015,649.815 C269.55,641.34 263.934,628.212 253.985,620.61 C249.158,616.921 237.1,612.064 239.786,604.019 C241.718,598.234 248.752,598.146 252.907,601.434 C260.586,607.51 269.102,624.536 278.312,606.961 C283.468,597.12 276.876,581.724 277.004,571 C277.135,559.991 279.921,549.006 279.921,538 C279.921,518.659 278.286,501.382 280.71,482 C281.753,473.659 278.456,458.926 268,458.319 C252.745,457.433 259.327,482.98 251.66,490.521 C244.347,497.713 221.63,492.453 221.951,506.576 C222.324,523.066 251.079,518.14 257.543,531.001 C264.266,544.376 251.041,552.628 243.213,560.326 C230.093,573.228 224.101,593.541 202,594 C202.264,581.62 211.798,572.922 221,565.669 C225.361,562.231 232.424,558.89 233.806,553 C237.766,536.122 211.167,538.755 204.43,529.981 C198.857,522.724 202.361,512.452 196.442,505.093 C193.057,500.885 187.172,497.392 182.044,500.743 C176.436,504.407 175.671,511.889 176.09,518 C176.96,530.718 180.795,543.087 179.91,556 C179.218,566.12 173.802,579.807 179.879,588.985 C184.121,595.391 191.907,594.512 196.397,599.513 C200.567,604.159 197.01,611.985 202.148,616.582 C207.243,621.14 214.6,622.798 219.985,627.439 C235.597,640.892 248.273,656.947 262.171,671.985 C267.293,677.528 275.779,680.835 278.91,688.004 C282.011,695.102 278.861,703.736 278.17,711 C277.37,719.408 279,728.478 279,737 C279,746.413 282.552,758.022 279.671,766.996 C277.604,773.433 266.36,780.989 259.703,775.972 C256.969,773.912 256.661,768.922 255.164,766 C251.913,759.654 245.336,753.333 238,752.368 C229.629,751.267 219.707,755 211,755 L124,755 C110.622,755 94.916,747.835 85.394,760.004 C69.527,780.282 100.526,779.848 113,779.996 C150.798,780.446 189.328,781.669 227,779.089 C236.505,778.439 268.146,776.98 250.787,793.772 C243.866,800.466 233.241,796.608 225,795.428 C210.154,793.302 193.993,795 179,795 C159.019,795 138.974,794.525 119,795.015 C110.992,795.211 101.799,799.566 94,796.89 C85.147,793.853 84.706,786.432 79.351,780.275 C74.8,775.041 67.198,775.325 63.144,768.985 C54.947,756.165 62.666,732.511 62.66,718 C62.657,708.854 57.823,698.978 61.133,690.001 C63.826,682.701 70.916,680.501 75.621,674.957 C87.62,660.816 98.76,647.23 112,634 C116.436,629.568 125.232,618.82 132.757,621.043 C141.722,623.692 126.122,642.221 123.718,645 C115.73,654.232 106.666,661.685 97,669.113 C92.531,672.547 85.766,675.285 82.604,680.043 C77.728,687.382 86.228,697.238 93,699.617 C100.09,702.107 108.741,697.426 116,697.104 C126.122,696.655 137.281,702.117 147,697.428 C165.054,688.719 156.357,667.041 157.039,652 C157.343,645.321 161.066,638.715 159.466,632 C156.495,619.529 138.569,620.313 140.186,607 C141.517,596.043 155.618,595.832 160.03,586 C164.698,575.599 158.2,563.646 157.17,553 C155.819,539.039 166.128,519.63 158.91,507.001 C153.463,497.469 143.32,498.137 138.573,508.001 C136.011,513.324 137.014,519.555 135.03,524.999 C134.006,527.809 132.314,530.358 129.895,532.147 C122.374,537.706 102.031,532.71 101.569,546 C100.967,563.294 130.655,556.705 136.185,571.004 C139.072,578.467 140.103,595.004 128,592.62 C118.012,590.652 111.134,581.762 102,577.88 C95.468,575.103 87.424,576.046 82.649,569.895 C77.726,563.553 77.354,554.157 73.869,547 C70.641,540.371 59.829,531.168 65.742,523.225 C76.54,508.719 110.323,537.267 113.768,508 C116.402,485.623 84.548,499.277 75,497.786 C67.923,496.681 60.992,488.821 66.434,482.109 C71.48,475.887 80.047,476.931 87,478.08 C102.209,480.594 117.659,480.673 133,482.075 C142.399,482.934 155.087,481.791 156.782,470 C157.915,462.125 151.417,456.124 144,455.185 C135.513,454.111 127.394,456.593 119,456.961 C107.397,457.469 96.648,456.321 85,457.715 C77.61,458.598 63.44,457.813 64.333,447 C65.241,436.018 79.372,436.671 87,437.92 C98.928,439.872 110.975,438.508 123,439.039 C129.79,439.339 136.29,441.817 143.17,440.987 C149.624,440.209 156.299,436.029 156.876,429 C157.67,419.312 148.49,414.528 140,414.26 C125.681,413.808 109.401,415.103 95,416.09 C88.75,416.518 82.269,418.604 76,417.698 C64.466,416.031 58.315,401.518 71.004,395.995 C79.144,392.451 89.568,395.455 98,396.576 C104.133,397.391 109.958,395.757 116,396.184 C123.557,396.718 131.449,399.435 139,398.903 C151.038,398.054 155.844,382.888 167,382.322 z M237.904,712.999 C231.586,713.033 225.397,714.343 219.122,714.885 C218.084,714.975 217.04,714.962 216,715 L143,714.996 C132.1,715.126 120.873,715.673 110,714.911 C104.279,714.51 98.773,712.204 93,713.529 C76.271,717.37 79.035,736.957 94,741.21 C102.839,743.722 115.572,739 125,739 L210,739 C222.883,739 238.075,745.58 249.96,738.467 C263.439,730.399 253.488,714.515 241,713.174 L237.904,712.999 z M191.217,619.085 C188.747,619.344 189.813,619.151 188,619.558 C182.828,620.913 178.8,624.788 177.533,630 C175.566,638.095 179.355,646.835 179.545,655 C179.792,665.656 175.296,676.853 180.378,687 C189.205,704.625 205.21,695.661 220,697.174 C228.297,698.023 236.628,702.8 245,699.891 C254.402,696.624 258.988,686.333 252.581,678.015 C247.096,670.892 238.048,666.187 231,660.765 C222.822,654.473 214.93,645.929 208.326,638 C202.846,631.285 201.409,619.834 191.217,619.085 z M207.195,453.854 C201.762,453.966 196.348,454.516 191,455.468 C179.838,457.632 175.9,470.848 185.185,478.197 C192.101,483.67 212.616,484.463 221,482.466 C232.517,479.722 240.312,464.214 227.995,457.09 C221.602,453.813 214.196,453.891 207.195,453.854 z M198.373,414.452 L196,414.515 C183.121,415.387 171.627,430.239 187.015,438.558 C197.099,444.009 208.386,438.316 219,439.09 C227.066,439.678 234.776,443.815 243,442.814 C251.708,441.754 266.743,423.099 253.941,417.742 C243.299,413.289 226.387,416.132 215,415.996 C204.006,415.247 217.651,416.267 203.123,414.775 C201.544,414.613 199.956,414.56 198.373,414.452 z" fill="#870E00" fill-opacity="0.729"/>
    <path d="M369.92,556.479 C375.039,556.272 380.25,556.343 384.995,558.457 C391.578,561.811 393.29,570.695 386.941,575.297 C376.3,583.011 360.059,573.033 348.015,576.434 C339.742,578.77 340.777,590.847 346.214,595.567 C350.825,599.571 358.315,599 364,599 C378.564,599.001 402.844,604.953 413.775,592.906 C419.977,586.072 415.777,565.56 426.04,563.528 C433.122,562.126 436.799,569.334 437.904,575 C439.359,582.454 440.613,590.269 447.093,595.2 C454.14,600.561 461.884,599.214 470,599.015 C481.586,598.731 494.629,600.87 506,598.521 C513.253,597.023 518.896,589.407 514.972,582.044 C506.601,566.336 479.999,584.896 468.394,573.467 C462.789,567.946 465.764,559.659 473.001,557.573 C481.461,555.133 491.467,559.039 500,559.675 C504.261,559.993 508.726,558.173 512.942,559.318 C519.704,561.153 516.796,571.278 521.228,575.621 C525.991,580.288 536.526,583.215 533.254,591.996 C531.233,597.42 525.115,599.756 521.04,603.326 C516.347,607.437 513.774,613.41 507.999,616.312 C496.719,621.979 478.122,615.594 466,615 C457.68,614.592 438.571,612.958 439.747,627 C441.091,643.05 461.194,640.863 472,639.83 C482.398,638.837 495.972,634.732 506,638.563 C513.777,641.535 515.31,648.252 520.275,653.907 C524.376,658.578 530.54,660.698 534.03,666.015 C540.105,675.269 540.515,699.493 534.775,708.995 C532.197,713.264 524.85,718.859 519.419,716.382 C513.842,713.839 512.358,700.966 505.996,696.703 C499.858,692.591 492.753,694.656 486,695.575 C473.173,697.321 453.19,688.675 443.228,699.189 C435.094,707.775 444.611,718.977 454,720.671 C468.139,723.222 486.347,719 501,719 C508.379,719 519.562,717.846 514.991,728.996 C508.243,745.455 474.304,735.436 461,734.17 C453.239,733.431 443.938,734.563 440.743,743.001 C437.607,751.282 446.327,759.786 454,760.812 C471.817,763.193 494.858,750.528 511,760.468 C518.082,764.829 526.873,772.9 531.258,780 C533.253,783.23 534.068,789.527 529.772,791.393 C522.938,794.36 516.761,786.118 512,782.8 C505.838,778.507 498.31,777.72 491,778.039 C480.086,778.517 462.977,774.313 453,777.879 C444.419,780.946 438.766,792.072 429,792.202 C419.104,792.334 412.4,780.036 403,777.497 C395.936,775.589 389.039,778.149 382,778.83 C375.223,779.486 368.717,778.323 362,778.039 C346.226,777.374 343.499,787.769 331,793.678 C325.812,796.131 320.311,792.781 320.167,786.999 C319.982,779.544 329.283,776.827 334,772.79 C340.618,767.126 345.834,758.925 355,757.329 C369.323,754.835 386.244,761.371 401,760.985 C408.355,760.793 417.162,756.48 417.367,748 C417.552,740.308 409.902,734.929 403,733.909 C388.246,731.729 372.752,738.625 358,737.79 C345.336,737.074 345.2,728.574 337.775,721.228 C333.113,716.614 325.859,716.925 321.225,711.895 C314.031,704.087 315.687,682.981 317.213,673 C318.379,665.377 326.675,657.328 334.945,659.333 C341.653,660.958 343.512,674.048 350.004,677.992 C359.617,683.831 372.446,678.577 383,679.039 C390.653,679.375 398.307,682.337 406,680.467 C411.103,679.227 415.784,675.251 416.967,670 C418.694,662.336 411.876,656.171 405,654.532 C391.808,651.39 373.782,656 360,656 C355.346,656 342.899,657.554 342.191,650.941 C341.149,641.203 351.973,636.617 360,637.184 C374.012,638.175 388.972,642.062 403,640.907 C409.547,640.367 416.285,635.91 417.373,629 C418.79,619.995 408.485,614.686 401,614.093 C385.352,612.854 363.519,623.346 349.004,616 C343.676,613.304 341.01,608.155 336.91,604.093 C331.919,599.15 322.864,596.207 322.519,588 C322.208,580.63 329.951,577.555 334.91,574.035 C345.738,566.348 346.4,559.009 361,557.286 C365.773,556.746 362.803,557.052 369.92,556.479 z M397.901,693.829 C395.358,694.134 392.816,694.439 390.274,694.743 C387.75,695.12 385.234,695.559 382.702,695.872 C381.474,696.023 380.234,696.047 379,696.135 C371.983,696.301 364.966,693.604 358,694.443 C350.568,695.337 332.119,709.472 344.228,716.682 C348.056,718.961 353.73,717.864 358,718.424 C366.31,719.516 374.684,718.365 383,719.17 C390.627,719.908 398.277,722.152 406,720.66 C418.954,718.157 421.104,700.846 408.996,695.533 C405.126,693.788 402.131,693.972 397.901,693.829 z M458.977,653.938 C451.959,654.013 454.934,653.633 450,654.558 C437.421,657.859 436.658,673.407 448.015,678.95 C458.264,683.953 471.083,678.338 482,679.089 C489.369,679.597 497.723,682.9 504.999,680.106 C511.438,677.635 521.703,662.075 511.941,657.728 C501.048,652.877 485.61,656.706 474,655.911 C468.976,655.383 463.99,654.572 458.977,653.938 z" fill="#870E00" fill-opacity="0.729"/>
    <path d="M58.581,18.194 C64.77,18.245 70.841,19.521 77,19.961 C90.613,20.557 104.373,20 118,20 L460,20 C486.865,20 515.37,16.813 542,19.094 C551.386,19.898 555.499,27.695 561.184,33.985 C565.519,38.781 571.553,41.712 575.362,47.004 C580.216,53.748 579,62.147 579,70 C579,78.11 580.418,89.362 570.996,92.976 C562.651,96.177 557.321,86.906 556.301,80 C554.413,67.226 563.858,42.698 544,40.185 C524.041,37.659 504.851,39.76 485,39.996 C449.707,40.416 414.248,40.66 379,40.66 C369.29,40.66 359.688,38.115 350,38.004 C320.021,37.659 289.923,39.862 260,40.545 C250.579,40.76 241.35,38.448 232,38.039 C213.194,37.217 193.803,38.909 175,38.999 C144.327,39.147 113.66,39.361 83,38.996 C71.47,38.859 55.343,34.44 45.044,41.703 C36.946,47.413 37.434,61.136 37,70 C36.434,81.578 38.859,92.496 38.996,104 C39.191,120.37 37,136.576 37,153 C37,175.598 36.051,198.426 37.039,221 C37.463,230.664 39.766,240.288 39.545,250 C38.86,279.999 36.275,309.798 37.015,340 C37.302,351.727 40.72,363.299 40.946,375 C41.146,385.353 38.078,395.656 38.005,406 C37.818,432.367 39.769,458.627 38.09,485 C36.534,509.444 39.357,534.608 40.91,559 C41.362,566.102 39.833,572.817 40.715,580 C41.977,590.271 45.385,609.08 31,612.022 C17.102,614.865 18.304,594.316 19.286,586 C23.242,552.467 20,516.782 20,483 L20,128 C20,110.718 20.717,93.264 19.961,76 C19.593,67.597 16.352,58.029 19.97,50.001 C23.172,42.897 30.518,40.825 35.671,35.671 C42.507,28.835 44.89,19.495 56,18.34 L58.581,18.194 z" fill="#870E00" fill-opacity="0.729"/>
    <path d="M427.858,321.136 C429.036,321.282 430.253,321.239 431.391,321.573 C439.189,323.865 444.18,333.31 450,338.536 C473.251,357.724 493.799,381.6 515.911,402.289 C521.282,407.316 537.011,421.717 532.806,429.945 C531.005,433.471 522.419,438.757 518.738,435.357 C515.823,432.663 515.802,426.476 513.779,423 C509.355,415.396 501.481,406.642 494,401.995 C489.587,399.253 483.413,399.314 479.394,396.146 C474.896,392.6 475.25,384.868 471.637,380.325 C464.731,371.64 454.73,365.832 447.039,357.985 C441.286,352.115 435.944,340.242 426.001,342.398 C419.587,343.789 416.693,350.276 412.985,355 C408.646,360.529 403.373,364.478 398,368.92 C386.594,378.349 382.528,383.319 381,398 C365.966,398.041 356.839,404.088 347.681,416 C343.644,421.25 339.222,430.373 346.133,435.397 C353.27,440.584 369.45,436.273 378,437.285 C394.919,439.288 413.995,442.992 431,441.91 C452.559,440.537 475.411,434.59 497,437.424 C502.101,438.094 510.277,437.021 514.682,440.024 C519.247,443.136 516.657,451.487 520.434,455.62 C524.21,459.753 530.794,460.46 533.141,466.04 C534.347,468.907 533.986,472.334 532.258,474.907 C529.786,478.585 525.319,480.53 522.004,483.326 C516.055,488.343 512.274,496.177 504,497.671 C493.513,499.564 481.696,496 471,496 L386,496 C374.744,496 359.833,493.422 349.004,496.573 C339.105,499.452 340.472,513.6 349.005,517.297 C361.262,522.607 380.837,519 394,519 L435,519 C448.262,519 461.785,519.883 475,519.406 C484.33,519.069 494.825,515.498 504,517.684 C518.836,521.217 549.656,555.256 518,556 C517.391,551.21 517.124,545.05 513.581,541.394 C503.773,531.27 477.436,535.757 465,537.285 C437.555,540.655 408.426,537.957 381,536.089 C371.36,535.433 361.516,539.962 352,537.211 C344.743,535.112 342.142,528.954 336.96,524.185 C332.015,519.635 324.673,517.091 322.668,510 C319.994,500.539 331.54,497.643 336.7,492.671 C341.817,487.741 344.383,480.145 352,478.394 C367.82,474.758 385.041,482.216 401,480.907 C407.5,480.373 415.782,475.34 415.782,468 C415.782,459.677 405.278,454.217 398,454.18 C383.17,454.104 363.037,462.805 349.004,456.08 C342.542,452.984 339.781,445.719 333.999,441.649 C329.932,438.786 324.907,437.736 321.653,433.699 C312.705,422.6 334.061,411.024 340.285,404.001 C350.679,392.273 363.746,382.792 374.996,371.96 C385.423,361.921 393.911,349.801 405,340.439 C410.867,335.486 418.762,323.34 426.004,321.438 L427.858,321.136 z M460.105,453.974 C455.319,454.224 457.347,453.996 454,454.471 C441.012,456.772 436.911,473.368 450.004,479.347 C459.256,483.572 471.329,479.463 481,479.039 C489.784,478.655 500.546,480.926 508.985,478.196 C515.982,475.932 519.928,461.6 511.891,458.264 C504.811,455.325 495.487,457.289 488,456.961 C480.792,456.602 473.715,455.033 466.543,454.323 C464.404,454.111 462.251,454.09 460.105,453.974 z" fill="#870E00" fill-opacity="0.729"/>
    <path d="M442,396.004 C449.74,396.096 461.894,395.938 468.852,399.653 C475.522,403.214 470.74,413.048 465.96,415.91 C457.725,420.842 446.796,416.425 438,416.039 C416.985,415.119 385.776,427.241 382,398 C394.077,398 405.972,396.309 418,396.015 L442,396.004 z" fill="#870E00" fill-opacity="0.729"/>
    <path d="M288.313,61.911 C291.944,62.591 290.428,62.066 292.957,63.179 C296.988,65.31 299.679,70.69 300.61,75 C301.991,81.398 299.319,87.651 299.039,94 C298.592,104.133 302.655,114.127 299.239,124 C292.747,142.765 268.076,132.221 259.999,148.004 C254.439,158.87 257,174.176 257,186 L256.999,255 C256.956,263.881 253.606,273.185 255.519,282 C257.781,292.43 267.031,297.185 277,298 C276.398,309.595 256.841,322.519 261.607,333.852 C263.15,337.521 267.729,336.993 271,337 C280.578,337.02 301.424,336.87 295.258,352.999 C291.626,362.499 277.259,364.545 269.015,360.312 C260.857,356.123 262.013,347.227 256.581,341.225 C247.016,330.654 227.39,326.966 224.434,310 C222.592,299.431 238.315,290.864 238.895,279 C239.606,264.449 240.906,247.532 239.91,233 C238.833,217.264 235.656,201.895 237.17,186 C238.634,170.625 244.731,152.939 230.985,141.225 C223.3,134.675 213.173,136.985 204,137 C188.208,137.025 172.641,138.627 157,138.985 C150.354,139.137 143.557,136.65 137,137.34 C123.383,138.773 115.387,154.525 116.093,167 C117.661,194.706 117.708,224.128 116.912,251.911 C116.406,269.56 113.483,287.273 115.17,305 C116.351,317.415 120.88,330.668 120.82,343 C120.794,348.381 118.558,354.622 112.985,356.343 C104.438,358.982 99.467,350.132 98.63,343 C97.026,329.317 109.101,309.686 91.999,301.18 C85.094,297.745 78.234,303.739 75.97,310 C72.102,320.695 78.823,332.878 77.907,344 C77.41,350.023 73.027,357.334 66.015,353.817 C59.191,350.394 58.992,342.599 59,336 C59.018,321.331 63.253,306.705 61.83,292 C61.148,284.947 57.585,275.613 61.858,269.059 C70.721,255.463 83.846,281.655 94.945,272.682 C102.409,266.649 100.699,258.219 99.424,250 C97.196,235.633 99.93,220.446 101.086,206 C101.734,197.892 102.045,189.085 94.956,183.419 C87.473,177.438 78.312,182.52 75.653,191 C72.429,201.282 80.39,210.912 78.305,221 C77.048,227.082 70.882,234.805 64.105,230.254 C56.941,225.444 58.529,213.336 59.579,206 C62.546,185.286 63.072,164.603 59.464,144 C58.326,137.502 57.906,126.795 66.015,124.697 C71.575,123.258 75.085,128.257 76.177,133 C78.092,141.321 76.566,156.526 90,155.471 C107.61,154.088 95.601,125.848 113,120.789 C123.209,117.821 134.524,119.242 145,118.985 C162.934,118.546 180.01,118.252 198,119.039 C208.437,119.496 222.782,124.93 231.956,117.581 C242.058,109.489 234.248,97.478 224,94.764 C214.514,92.251 205.609,98.015 196,96.815 C183.934,95.308 173.034,79.257 180.995,68.189 C188.82,57.31 199.749,72.504 208,74.251 C220.29,76.852 225.915,56.924 238.91,67.419 C251.218,77.359 253.786,90.818 256.468,105 C257.404,109.956 260.141,115.989 266.001,116.127 C269.391,116.206 272.546,114.032 274.907,111.811 C287.601,99.871 276.019,88.821 276.46,75 C276.821,69.647 279.953,63.884 285.432,62.299 C286.363,62.03 287.353,62.04 288.313,61.911 z" fill="#870E00" fill-opacity="0.729"/>
    <path d="M509,63.658 C523.894,63.581 540.622,86.452 529.811,99 C525.077,104.495 519.415,110.701 513,114.2 C508.561,116.621 502.058,116.876 498.418,120.43 C492.751,125.964 493.271,134.045 484.999,137.633 C475.677,141.676 467.231,135.768 458,136.275 C443.545,137.068 437.327,152.894 436.17,165 C435.721,169.699 436.103,174.369 436.924,179 C442.913,212.797 480.747,193.79 502,197.623 C513.925,199.774 514.543,209.678 522.108,216.671 C526.821,221.028 532.981,222.745 535.786,229.004 C540.007,238.42 540.32,262.384 534.008,270.907 C530.275,275.946 523.389,276.603 519.738,281.275 C516.663,285.21 516.814,290.862 513.606,295 C507.924,302.331 497.651,307.588 498.104,318 C499.166,342.389 519.642,329.046 531.721,341.34 C539.05,348.8 532.069,360.359 523,361.786 C506.316,364.411 504.801,350.586 495.61,341.39 C490.105,335.883 482.523,334.585 478.688,327 C472.06,313.892 477.739,300.987 459,297.616 C442.393,294.628 424.698,297.994 408,298 C400.398,298.003 391.313,296.784 385.214,302.394 C377.897,309.123 381.717,319.893 377.547,327.999 C373.65,335.575 365.811,335.976 360.394,341.394 C355.231,346.557 354.222,353.788 347.999,358.606 C338.846,365.693 321.023,361.23 321.087,348 C321.17,330.816 342.557,339.086 351.956,335.258 C359.048,332.369 358.952,320.231 357.468,314 C355.128,304.178 342.204,287.149 334.895,280.21 C330.385,275.928 324.641,273.876 321.688,267.999 C318.226,261.109 321.127,253.264 320.985,246 C320.834,238.339 318.403,230.676 324.394,224.329 C328.068,220.437 333.873,220.128 337.57,216.501 C343.546,210.638 341.863,200.727 352,198.394 C373.099,193.539 413.657,213.616 420.192,181 C423.673,163.627 419.675,140.125 399,136.471 C390.499,134.969 382.673,140.87 374,138.362 C364.729,135.681 363.879,127.143 357.787,121.228 C347.338,111.082 327.809,108.072 323.562,91 C320.893,80.273 337.996,64.57 348,64.148 C359.845,63.649 366.75,78.917 379,78.737 C402.214,78.395 425.616,77 449,77 C458.925,77 470.372,79.97 480,78.696 C491.255,77.207 498.828,63.711 509,63.658 z M454.688,254.692 C450.236,255.254 452.118,254.859 449,255.649 C435.957,259.59 439.087,274.324 450,278.867 C463.412,284.449 486.929,283.101 501,280.615 C505.167,279.879 510.886,280.404 514.682,278.411 C523.29,273.892 509.954,258.018 505,256.009 C497.252,252.868 487.941,256.616 480,256.961 C473.437,257.221 467.01,255.454 460.516,254.859 C458.581,254.682 456.631,254.747 454.688,254.692 z M398.865,254.294 L397,254.443 C389.27,255.36 381.861,257.461 374,256.911 C365.601,256.322 357.062,252.807 349.093,257.558 C340.542,262.657 337.753,276.258 349.001,279.506 C361.734,283.183 373.168,281.015 386,280.375 C391.713,280.09 397.242,281.621 403,280.532 C412.17,278.9 420.113,270.955 414.306,261.614 C410.872,256.09 404.956,254.536 398.865,254.294 z M455.18,214.815 C451.134,215.244 452.852,214.95 450,215.533 C436.385,218.822 436.36,234.901 449,239.852 C457.227,243.074 466.582,239.218 475,239.015 C484.625,238.783 495.61,243.398 504.985,240.146 C511.408,237.918 522.073,222.14 511.941,218.344 C501.855,214.565 488.587,217.424 478,216.961 C472.108,216.685 466.329,215.361 460.452,214.914 C458.699,214.781 456.938,214.848 455.18,214.815 z M399.136,214.721 C391.931,215.127 394.97,214.821 390,215.425 C378.328,217.014 366.788,217.27 355,216.985 C350.799,216.884 343.94,214.908 340.643,218.589 C335.205,224.659 345.61,237.099 351.004,239.185 C360.216,242.748 368.683,239.07 378,239.005 C387.365,238.938 396.585,242.37 406,240.671 C415.941,238.876 422.649,226.232 413.671,218.85 C409.267,215.332 404.528,215.057 399.136,214.721 z M377.041,94.58 C372.288,95.228 374.285,94.786 371,95.653 C364.441,97.713 354.743,111.511 363.228,116.825 C370.932,121.649 385.318,118.901 394,119.004 C406.407,119.151 418.56,122.059 431,121.999 C441.387,121.949 451.615,119.127 462,119.004 C470.117,118.907 487.819,122.401 494.682,117.821 C504.295,111.406 490.293,96.163 483,95.188 C474.185,94.011 465.717,96.579 457,96.961 C439.736,97.717 422.282,97.001 405,97 C397.764,96.932 390.674,95.202 383.476,94.662 C381.337,94.502 379.186,94.608 377.041,94.58 z" fill="#870E00" fill-opacity="0.729"/>
    <path d="M200.286,159.236 C205.951,159.641 211.407,161.919 212.562,168.004 C213.273,173.95 207.549,179.508 204.435,184 C199.513,191.1 196.099,198.185 197.043,207 C198.586,221.411 218.387,220.779 219.895,236 C220.82,245.336 211.386,262.991 200.39,253.347 C190.138,244.355 202.046,225.607 191.891,219.089 C180.181,211.574 163.582,217.748 159.928,231 C156.209,244.488 155.143,267.254 169.015,275.095 C178.271,280.327 188.889,277.055 195.751,287.039 C203.15,297.805 193.213,308.783 197.468,320 C201.238,329.941 229.691,354.051 207.996,360.072 C198.555,362.692 172.647,359.861 165.043,353.606 C159.966,349.43 159.379,342.667 154.786,338.275 C149.493,333.213 142.136,331.919 139.653,324 C136.462,313.823 142.308,303.192 142.545,293 C142.985,274.033 140.157,255.017 140.961,236 C141.296,228.062 142.589,219.943 141.83,212 C141.18,205.191 138.515,197.68 141.148,191.001 C149.566,169.648 163.106,205.034 174.772,193.721 C185.376,183.438 164.316,179.254 163.272,170.96 C161.349,155.668 189.187,160.12 198,159.3 L200.286,159.236 z M168.063,299.713 C164.148,300.263 165.815,299.836 163.004,300.743 C148.71,306.21 151.955,342.579 171.999,334.387 C185.479,328.618 185.443,307.299 173.802,301.106 C171.408,299.833 170.726,300.014 168.063,299.713 z" fill="#870E00" fill-opacity="0.729"/>
    <path d="M291.526,162.016 C293.202,162.289 293.709,162.203 295.173,163.079 C301.93,167.121 301.225,180.288 300.961,187 C299.966,209.714 296.454,232.189 297.015,255 C297.216,263.197 300.824,270.835 300.985,279 C301.162,288.027 297.149,294.72 288,296.711 C274.456,299.658 278.788,280.237 279.015,271 C279.686,243.617 280.16,216.396 278.961,189 C278.552,179.68 275.438,165.705 288,162.438 C289.997,162.009 288.829,162.197 291.526,162.016 z" fill="#870E00" fill-opacity="0.729"/>
    <path d="M326.001,139.529 C335.894,138.748 340.365,151.62 348.001,155.547 C359.937,161.687 374.698,153.018 385.957,159.558 C394.404,164.464 392.404,175.441 383,177.606 C374.369,179.593 355.882,180.181 348.015,175.95 C340.224,171.76 333.284,163.529 326.001,158.214 C319.971,153.815 313.321,140.53 326.001,139.529 z" fill="#870E00" fill-opacity="0.729"/>
    <path d="M527.435,141.171 C528.316,141.205 529.213,141.107 530.08,141.272 C534.185,142.054 536.833,146.122 536.325,150.186 C536.09,152.066 535.731,152.547 534.99,153.985 C530.534,161.341 514.228,174.984 506,177.362 C497.685,179.765 480.008,179.873 472.015,176.517 C466.391,174.156 462.593,167.459 467.318,162.225 C476.495,152.056 495.375,160.977 507,156.045 C514.512,152.857 518.21,143.461 526,141.438 L527.435,141.171 z" fill="#870E00" fill-opacity="0.729"/>
    <path d="M565.591,121.237 C568.176,121.383 568.84,121.179 571.224,122.242 C580.546,126.399 583.997,142.154 576.58,149.471 C574.715,151.312 572.49,152.184 570,152.771 C552.877,155.806 548.508,124.292 564.015,121.434 L565.591,121.237 z" fill="#870E00" fill-opacity="0.729"/>
    <path d="M149.498,65.154 L150.96,65.438 C166.004,69.544 156.001,90.602 146.996,95.16 C139.8,98.803 130.647,96.688 123,96.086 C107.477,94.863 86.266,103.833 72,97.08 C62.13,92.408 50.067,71.347 66.004,65.607 C75.239,62.281 81.035,74.959 90,74.485 C97.48,74.09 101.639,65.263 109,65.403 C117.198,65.558 122,75.409 131,73.591 C137.019,72.467 140.725,66.309 146.764,65.257 C147.662,65.1 148.587,65.188 149.498,65.154 z" fill="#870E00" fill-opacity="0.729"/>
  </g>
</svg>
