<?xml version="1.0" encoding="UTF-8"?>
<!DOCTYPE svg PUBLIC "-//W3C//DTD SVG 1.1//EN" "http://www.w3.org/Graphics/SVG/1.1/DTD/svg11.dtd">
<svg version="1.1" xmlns="http://www.w3.org/2000/svg" xmlns:xlink="http://www.w3.org/1999/xlink" x="0" y="0" width="33.929" height="363.086" viewBox="0, 0, 33.929, 363.086">
  <g id="Layer_1" transform="translate(-151.61, -90.672)">
    <g>
      <path d="M157.426,414.122 C157.863,414.122 158.218,414.477 158.218,414.915 L158.218,433.94 L158.218,452.964 C158.218,453.402 157.863,453.757 157.426,453.757 L156.893,453.757 C156.455,453.757 156.1,453.402 156.1,452.964 L156.1,414.915 C156.1,414.477 156.455,414.122 156.893,414.122 L157.426,414.122 z" fill="#000000"/>
      <path d="M180.255,433.147 C180.693,433.147 181.048,433.502 181.048,433.94 L181.048,452.964 C181.048,453.402 180.693,453.757 180.255,453.757 L179.723,453.757 C179.285,453.757 178.93,453.402 178.93,452.965 L178.93,433.94 C178.93,433.502 179.285,433.147 179.723,433.147 L180.255,433.147 z" fill="#000000"/>
      <path d="M169.164,434.327 C169.598,434.327 169.951,434.676 169.956,435.11 L169.975,436.651 L169.973,436.726 L169.63,440.817 C169.596,441.228 169.253,441.543 168.84,441.543 L168.308,441.543 C167.896,441.543 167.552,441.228 167.518,440.817 L167.175,436.726 L167.173,436.651 L167.192,435.109 C167.197,434.676 167.55,434.327 167.984,434.327 L169.164,434.327 z" fill="#000000"/>
      <path d="M180.293,417.965 C180.731,417.965 181.086,418.32 181.086,418.758 L181.086,421.846 L183.832,421.846 C184.27,421.847 184.625,422.201 184.625,422.639 L184.625,423.172 C184.625,423.61 184.27,423.965 183.832,423.965 L181.086,423.965 L181.086,427.053 C181.086,427.491 180.731,427.846 180.293,427.846 L179.684,427.846 C179.247,427.846 178.892,427.491 178.892,427.053 L178.892,423.965 L176.146,423.965 C175.708,423.965 175.353,423.61 175.353,423.172 L175.353,422.639 C175.353,422.201 175.708,421.847 176.146,421.846 L178.892,421.846 L178.892,418.758 C178.892,418.32 179.247,417.965 179.685,417.965 L180.293,417.965 z" fill="#000000"/>
      <path d="M172.417,423.739 C172.855,423.74 173.21,424.094 173.21,424.532 L173.21,425.065 C173.21,425.503 172.855,425.858 172.417,425.858 L164.731,425.858 C164.293,425.858 163.938,425.503 163.938,425.065 L163.938,424.532 C163.938,424.094 164.293,423.74 164.731,423.74 L172.417,423.739 z" fill="#000000"/>
      <path d="M172.417,419.954 C172.855,419.954 173.21,420.308 173.21,420.746 L173.21,421.279 C173.21,421.717 172.855,422.072 172.417,422.072 L164.731,422.072 C164.293,422.072 163.938,421.717 163.938,421.279 L163.938,420.746 C163.938,420.308 164.293,419.954 164.731,419.954 L172.417,419.954 z" fill="#000000"/>
      <path d="M157.844,400.044 C159.165,400.044 160.207,400.414 160.918,401.183 C161.619,401.941 161.947,403.052 161.947,404.49 L161.947,410.159 C161.947,410.597 161.592,410.952 161.155,410.952 L160.584,410.952 C160.146,410.952 159.791,410.597 159.791,410.159 L159.791,404.566 C159.791,403.655 159.622,403.025 159.324,402.661 C159.06,402.34 158.589,402.162 157.844,402.162 C157.577,402.162 157.333,402.196 157.11,402.263 C156.883,402.33 156.654,402.436 156.422,402.582 C156.172,402.74 155.911,402.942 155.64,403.191 C155.088,403.715 155.331,403.476 154.908,403.903 L154.908,410.159 C154.908,410.597 154.553,410.952 154.115,410.952 L153.545,410.952 C153.107,410.952 152.752,410.597 152.752,410.159 L152.752,401.065 C152.752,400.627 153.107,400.273 153.545,400.273 L154.039,400.273 C154.464,400.273 154.814,400.608 154.831,401.032 L154.838,401.185 C155.105,400.961 154.911,401.117 155.443,400.747 C155.794,400.525 156.168,400.354 156.565,400.231 C156.971,400.106 157.399,400.044 157.844,400.044 z" fill="#000000"/>
      <path d="M172.417,402.822 C172.855,402.822 173.21,403.177 173.21,403.615 L173.21,404.147 C173.21,404.585 172.855,404.94 172.417,404.94 L164.731,404.94 C164.293,404.94 163.938,404.585 163.938,404.147 L163.938,403.615 C163.938,403.177 164.293,402.822 164.731,402.822 L172.417,402.822 z" fill="#000000"/>
      <path d="M180.255,377.785 C180.59,377.785 180.889,377.996 181.002,378.311 L185.492,390.867 C185.676,391.384 185.293,391.927 184.745,391.927 L184.098,391.927 C183.761,391.927 183.46,391.713 183.349,391.395 L181.974,387.437 L177.982,387.437 L176.589,391.397 C176.478,391.715 176.178,391.927 175.842,391.927 L175.233,391.927 C174.684,391.927 174.302,391.384 174.486,390.867 L178.976,378.311 C179.089,377.996 179.388,377.785 179.723,377.785 L180.255,377.785 z M179.989,381.739 C179.513,383.119 179.759,382.412 179.253,383.862 L179.252,383.866 L178.735,385.319 L181.232,385.319 L180.725,383.862 C180.219,382.412 180.464,383.119 179.989,381.739 z" fill="#000000"/>
      <path d="M157.426,377.785 C157.761,377.785 158.059,377.996 158.172,378.311 L162.662,390.867 C162.847,391.384 162.464,391.927 161.915,391.927 L161.269,391.927 C160.931,391.927 160.631,391.713 160.52,391.395 L159.145,387.437 L155.152,387.437 L153.76,391.397 C153.648,391.715 153.348,391.927 153.012,391.927 L152.403,391.927 C151.855,391.927 151.472,391.384 151.657,390.867 L156.146,378.311 C156.259,377.996 156.558,377.785 156.893,377.785 L157.426,377.785 z M157.159,381.739 C156.684,383.119 156.929,382.412 156.424,383.862 L156.422,383.866 L155.905,385.319 L158.403,385.319 L157.895,383.862 C157.39,382.412 157.635,383.119 157.159,381.739 z" fill="#000000"/>
      <path d="M180.978,339.888 C181.729,339.888 182.4,340.013 182.987,340.268 C183.543,340.509 184.05,340.829 184.505,341.225 C184.84,341.517 184.87,342.027 184.571,342.356 L184.19,342.774 C183.891,343.103 183.381,343.122 183.058,342.816 C182.485,342.273 181.793,342.006 180.94,342.006 C180.475,342.006 180.031,342.096 179.603,342.277 C179.2,342.447 178.842,342.724 178.522,343.12 C178.194,343.526 177.923,344.083 177.716,344.793 C177.541,345.518 177.599,345.176 177.524,345.819 L178.017,345.546 C178.763,345.173 179.576,344.987 180.446,344.987 C181.829,344.987 182.958,345.375 183.789,346.166 C184.632,346.97 185.043,348.114 185.043,349.546 C185.043,350.2 184.919,350.811 184.67,351.371 C184.426,351.921 184.092,352.402 183.669,352.809 C183.247,353.215 182.757,353.533 182.202,353.761 C181.643,353.991 181.056,354.106 180.446,354.106 C178.814,354.106 177.492,353.503 176.551,352.311 C175.642,351.16 175.201,349.585 175.201,347.606 C175.201,346.238 175.347,345.074 175.646,344.109 C175.948,343.131 176.365,342.323 176.902,341.69 C177.448,341.047 178.088,340.578 178.817,340.294 C179.511,340.024 180.233,339.888 180.978,339.888 z M180.407,347.105 C179.958,347.105 179.456,347.227 178.901,347.48 C178.351,347.732 177.876,348.117 177.451,348.543 C177.541,349.326 177.469,348.892 177.7,349.839 C177.851,350.311 178.052,350.706 178.303,351.029 C178.538,351.331 178.828,351.564 179.181,351.733 C179.53,351.901 179.962,351.988 180.484,351.988 C180.832,351.988 181.144,351.925 181.428,351.799 C181.721,351.669 181.968,351.497 182.175,351.282 C182.383,351.064 182.547,350.807 182.669,350.506 C182.789,350.208 182.849,349.89 182.849,349.546 C182.849,348.72 182.648,348.121 182.263,347.709 C181.896,347.316 181.295,347.105 180.407,347.105 z" fill="#000000"/>
      <path d="M157.083,339.736 C158.635,339.736 159.872,340.028 160.787,340.641 C161.797,341.317 162.29,342.453 162.29,343.953 C162.29,345.389 161.81,346.521 160.841,347.272 C159.924,347.982 158.666,348.323 157.083,348.323 L155.212,348.322 L155.212,353.085 C155.212,353.523 154.858,353.878 154.42,353.878 L153.811,353.878 C153.373,353.878 153.018,353.523 153.018,353.085 L153.018,340.529 C153.018,340.091 153.373,339.736 153.811,339.736 L157.083,339.736 z M156.855,341.854 L155.212,341.854 L155.212,346.204 L156.855,346.204 C158.061,346.204 158.912,346.006 159.408,345.649 C159.833,345.344 160.057,344.807 160.057,343.953 C160.057,343.1 159.84,342.602 159.441,342.352 C158.929,342.032 158.064,341.854 156.855,341.854 z" fill="#000000"/>
      <path d="M157.083,320.711 C158.635,320.711 159.872,321.004 160.787,321.616 C161.797,322.292 162.29,323.428 162.29,324.929 C162.29,326.365 161.81,327.496 160.841,328.247 C159.924,328.958 158.666,329.298 157.083,329.298 L155.212,329.298 L155.212,334.06 C155.212,334.498 154.858,334.853 154.42,334.853 L153.811,334.853 C153.373,334.853 153.018,334.498 153.018,334.06 L153.018,321.504 C153.018,321.066 153.373,320.711 153.811,320.711 L157.083,320.711 z M156.855,322.829 L155.212,322.829 L155.212,327.18 L156.855,327.18 C158.061,327.18 158.912,326.981 159.408,326.625 C159.833,326.32 160.057,325.783 160.057,324.929 C160.057,324.076 159.84,323.577 159.441,323.327 C158.929,323.007 158.064,322.83 156.855,322.829 z" fill="#000000"/>
      <path d="M183.832,328.607 C184.27,328.607 184.625,328.962 184.625,329.399 L184.625,329.932 C184.625,330.37 184.27,330.725 183.832,330.725 L176.146,330.725 C175.708,330.725 175.353,330.37 175.353,329.932 L175.353,329.399 C175.353,328.962 175.708,328.607 176.146,328.607 L183.832,328.607 z" fill="#000000"/>
      <path d="M183.832,324.821 C184.27,324.821 184.625,325.176 184.625,325.613 L184.625,326.146 C184.625,326.584 184.27,326.939 183.832,326.939 L176.146,326.939 C175.708,326.939 175.353,326.584 175.353,326.146 L175.353,325.613 C175.353,325.176 175.708,324.821 176.146,324.821 L183.832,324.821 z" fill="#000000"/>
      <path d="M181.435,305.149 C181.873,305.149 182.228,305.504 182.228,305.942 L182.228,315.036 C182.228,315.474 181.873,315.828 181.435,315.828 L180.864,315.828 C180.426,315.828 180.071,315.474 180.071,315.036 L180.071,307.267 L176.184,307.267 C175.746,307.267 175.391,306.912 175.391,306.475 L175.391,305.942 C175.391,305.504 175.746,305.149 176.184,305.149 L181.435,305.149 z" fill="#000000"/>
      <path d="M157.083,301.687 C158.635,301.687 159.872,301.979 160.787,302.591 C161.797,303.267 162.29,304.404 162.29,305.904 C162.29,307.34 161.81,308.472 160.841,309.222 C159.924,309.933 158.666,310.273 157.083,310.273 L155.212,310.273 L155.212,315.036 C155.212,315.474 154.858,315.828 154.42,315.828 L153.811,315.828 C153.373,315.828 153.018,315.474 153.018,315.036 L153.018,302.479 C153.018,302.042 153.373,301.687 153.811,301.687 L157.083,301.687 z M156.855,303.805 L155.212,303.805 L155.212,308.155 L156.855,308.155 C158.061,308.155 158.912,307.957 159.408,307.6 C159.833,307.295 160.057,306.758 160.057,305.904 C160.057,305.051 159.84,304.553 159.441,304.303 C158.929,303.983 158.064,303.805 156.855,303.805 z" fill="#000000"/>
      <path d="M180.94,301.23 C181.356,301.23 181.734,301.376 182.03,301.659 C182.344,301.959 182.494,302.364 182.494,302.822 C182.494,303.28 182.344,303.685 182.03,303.984 C181.734,304.268 181.356,304.414 180.94,304.414 C180.524,304.414 180.146,304.268 179.85,303.984 C179.537,303.685 179.386,303.28 179.386,302.822 C179.386,302.364 179.537,301.959 179.85,301.659 C180.146,301.376 180.524,301.23 180.94,301.23 z" fill="#000000"/>
      <path d="M177.211,281.711 C177.542,281.711 177.838,281.916 177.954,282.225 L184.156,298.777 C184.35,299.295 183.967,299.848 183.413,299.848 L182.767,299.848 C182.436,299.848 182.14,299.643 182.024,299.333 L175.822,282.782 C175.628,282.264 176.011,281.711 176.564,281.711 L177.211,281.711 z" fill="#000000"/>
      <path d="M171.999,281.711 C172.552,281.711 172.935,282.264 172.741,282.782 L166.539,299.333 C166.423,299.643 166.127,299.848 165.797,299.848 L165.15,299.848 C164.596,299.848 164.213,299.295 164.407,298.777 L170.609,282.225 C170.725,281.916 171.021,281.711 171.352,281.711 L171.999,281.711 z" fill="#000000"/>
      <path d="M161.725,296.778 C162.163,296.778 162.518,297.133 162.518,297.571 L162.518,298.294 C162.518,298.732 162.163,299.087 161.725,299.087 L152.593,299.087 C152.156,299.087 151.801,298.732 151.801,298.294 L151.801,297.571 C151.801,297.133 152.156,296.778 152.593,296.778 L161.725,296.778 z" fill="#000000"/>
      <path d="M181.092,243.7 C181.53,243.7 181.885,244.055 181.885,244.492 L181.885,260.853 C181.885,261.291 181.53,261.646 181.092,261.646 L176.146,261.646 C175.708,261.646 175.353,261.291 175.353,260.854 L175.353,260.435 C175.353,259.997 175.708,259.642 176.146,259.642 L179.767,259.642 L179.767,245.704 L176.146,245.704 C175.708,245.704 175.353,245.349 175.353,244.911 L175.353,244.492 C175.353,244.055 175.708,243.7 176.146,243.7 L181.092,243.7 z" fill="#000000"/>
      <path d="M161.078,243.7 C161.516,243.7 161.871,244.054 161.871,244.492 L161.871,244.911 C161.871,245.349 161.516,245.704 161.078,245.704 L157.457,245.704 L157.457,259.642 L161.078,259.642 C161.516,259.642 161.871,259.997 161.871,260.435 L161.871,260.853 C161.871,261.291 161.516,261.646 161.078,261.646 L156.132,261.646 C155.694,261.646 155.339,261.291 155.339,260.853 L155.339,244.492 C155.339,244.054 155.694,243.7 156.132,243.7 L161.078,243.7 z" fill="#000000"/>
      <path d="M173.14,258.729 C173.578,258.729 173.933,259.084 173.933,259.522 L173.933,260.245 C173.933,260.683 173.578,261.037 173.14,261.037 L164.008,261.037 C163.57,261.037 163.216,260.683 163.216,260.245 L163.216,259.522 C163.216,259.084 163.57,258.729 164.008,258.729 L173.14,258.729 z" fill="#000000"/>
      <path d="M168.84,223.876 C169.278,223.876 169.633,224.231 169.633,224.669 L169.633,243.693 C169.633,244.131 169.278,244.486 168.84,244.486 L168.308,244.486 C167.87,244.486 167.515,244.131 167.515,243.693 L167.515,224.669 C167.515,224.231 167.87,223.876 168.308,223.876 L168.84,223.876 z" fill="#000000"/>
      <path d="M183.413,224.637 C183.967,224.637 184.35,225.19 184.156,225.708 L177.954,242.259 C177.838,242.569 177.542,242.774 177.211,242.774 L176.564,242.774 C176.011,242.774 175.628,242.221 175.822,241.703 L182.024,225.151 C182.14,224.842 182.436,224.637 182.767,224.637 L183.413,224.637 z" fill="#000000"/>
      <path d="M154.382,224.637 C154.712,224.637 155.008,224.842 155.124,225.151 L161.326,241.703 C161.52,242.221 161.137,242.774 160.584,242.774 L159.937,242.774 C159.606,242.774 159.311,242.569 159.195,242.259 L152.993,225.708 C152.798,225.19 153.182,224.637 153.735,224.637 L154.382,224.637 z" fill="#000000"/>
      <path d="M173.216,206.563 C173.819,206.563 174.201,207.21 173.911,207.738 L169.671,215.455 L169.671,219.912 C169.671,220.35 169.316,220.705 168.879,220.705 L168.27,220.705 C167.832,220.705 167.477,220.35 167.477,219.912 L167.477,215.455 L163.237,207.738 C162.947,207.21 163.329,206.563 163.932,206.563 L164.541,206.563 C164.83,206.563 165.097,206.721 165.236,206.975 L167.578,211.245 C167.877,211.739 168.162,212.238 168.435,212.745 L168.627,213.094 L168.835,212.731 C169.254,211.989 169.254,211.989 169.663,211.264 L171.946,206.983 C172.084,206.725 172.353,206.563 172.645,206.563 L173.216,206.563 z" fill="#000000"/>
      <path d="M184.555,201.655 C184.993,201.655 185.348,202.01 185.348,202.448 L185.347,203.171 C185.348,203.609 184.993,203.963 184.555,203.963 L175.423,203.963 C174.985,203.963 174.63,203.609 174.63,203.171 L174.63,202.448 C174.63,202.01 174.985,201.655 175.423,201.655 L184.555,201.655 z" fill="#000000"/>
      <path d="M161.725,201.655 C162.163,201.655 162.518,202.01 162.518,202.448 L162.518,203.171 C162.518,203.609 162.163,203.963 161.725,203.963 L152.593,203.963 C152.156,203.963 151.801,203.609 151.801,203.171 L151.801,202.448 C151.801,202.01 152.156,201.655 152.593,201.655 L161.725,201.655 z" fill="#000000"/>
      <path d="M172.417,193.551 C172.855,193.551 173.21,193.906 173.21,194.343 L173.21,194.876 C173.21,195.314 172.855,195.669 172.417,195.669 L164.731,195.669 C164.293,195.669 163.938,195.314 163.938,194.876 L163.938,194.343 C163.938,193.906 164.293,193.551 164.731,193.551 L172.417,193.551 z" fill="#000000"/>
      <path d="M177.791,148.538 C178.121,148.538 178.417,148.743 178.533,149.053 L184.735,165.604 C184.929,166.122 184.546,166.675 183.993,166.675 L183.346,166.675 C183.016,166.675 182.72,166.47 182.604,166.161 L176.402,149.609 C176.208,149.091 176.591,148.538 177.144,148.538 L177.791,148.538 z" fill="#000000"/>
      <path d="M160.584,148.538 C161.137,148.538 161.52,149.091 161.326,149.609 L155.124,166.16 C155.008,166.47 154.712,166.675 154.382,166.675 L153.735,166.675 C153.182,166.675 152.798,166.122 152.993,165.604 L159.195,149.053 C159.311,148.743 159.606,148.538 159.937,148.538 L160.584,148.538 z" fill="#000000"/>
      <path d="M165.359,130.465 C165.644,130.465 165.907,130.618 166.048,130.866 L168.243,134.726 C168.531,135.201 168.413,135.006 168.598,135.312 C168.763,135.021 168.654,135.211 168.931,134.747 L171.138,130.866 C171.279,130.618 171.542,130.465 171.827,130.465 L172.436,130.465 C173.047,130.465 173.429,131.127 173.121,131.656 L169.816,137.343 L173.386,143.412 C173.697,143.94 173.316,144.606 172.702,144.606 L172.056,144.606 C171.772,144.606 171.51,144.455 171.369,144.209 L169.05,140.18 C168.703,139.589 168.872,139.875 168.543,139.322 C168.244,139.865 168.404,139.58 168.063,140.176 L165.742,144.209 C165.6,144.455 165.338,144.606 165.055,144.606 L164.446,144.606 C163.834,144.606 163.452,143.942 163.761,143.414 L167.332,137.307 L164.028,131.658 C163.719,131.129 164.1,130.465 164.712,130.465 L165.359,130.465 z" fill="#000000"/>
      <path d="M160.584,110.489 C161.137,110.489 161.52,111.042 161.326,111.56 L155.124,128.111 C155.008,128.421 154.712,128.626 154.382,128.626 L153.735,128.626 C153.182,128.626 152.798,128.073 152.993,127.555 L159.195,111.003 C159.311,110.694 159.606,110.489 159.937,110.489 L160.584,110.489 z" fill="#000000"/>
      <path d="M177.211,110.489 C177.542,110.489 177.838,110.694 177.954,111.003 L184.156,127.555 C184.35,128.073 183.967,128.626 183.413,128.626 L182.767,128.626 C182.436,128.626 182.14,128.421 182.024,128.111 L175.822,111.56 C175.628,111.042 176.011,110.489 176.564,110.489 L177.211,110.489 z" fill="#000000"/>
      <path d="M168.84,90.672 C169.278,90.672 169.633,91.026 169.633,91.464 L169.633,110.489 C169.633,110.927 169.278,111.282 168.84,111.282 L168.308,111.282 C167.87,111.282 167.515,110.927 167.515,110.489 L167.515,91.464 C167.515,91.026 167.87,90.672 168.308,90.672 L168.84,90.672 z" fill="#000000"/>
      <path d="M183.832,313.71 C184.27,313.71 184.625,314.065 184.625,314.503 L184.625,315.036 C184.625,315.474 184.27,315.828 183.832,315.828 L176.146,315.828 C175.708,315.828 175.353,315.474 175.353,315.036 L175.353,314.503 C175.353,314.065 175.708,313.71 176.146,313.71 L183.832,313.71 z" fill="#000000"/>
    </g>
  </g>
</svg>
