<?xml version="1.0" encoding="UTF-8"?>
<!DOCTYPE svg PUBLIC "-//W3C//DTD SVG 1.1//EN" "http://www.w3.org/Graphics/SVG/1.1/DTD/svg11.dtd">
<svg version="1.1" xmlns="http://www.w3.org/2000/svg" xmlns:xlink="http://www.w3.org/1999/xlink" x="0" y="0" width="265.039" height="2560.057" viewBox="0, 0, 265.039, 2560.057">
  <g id="Layer_1" transform="translate(-36.773, -18.984)">
    <path d="M75.484,2215.17 C127.276,2216.304 51.754,2214.604 103.22,2215.917 C105.479,2215.974 107.74,2215.972 110,2216 C118.154,2216 127.529,2215.88 133.671,2222.21 C139.972,2228.71 140,2237.59 140,2246 L140,2472 C140,2501.17 139.01,2530.02 141.536,2559 C142.226,2566.91 138.519,2578.78 129,2578.9 C120.049,2579.01 116.183,2569.51 115.293,2562 C114.305,2553.66 117.037,2544.34 117.83,2536 C118.892,2524.84 118,2513.21 118,2502 L118,2301 L117.054,2279 C117.355,2263.38 121.96,2242.19 100,2238.33 C86.988,2236.04 66.51,2235.45 61.094,2250 C57.828,2258.77 60.568,2267.03 60.961,2276 C61.644,2291.6 61,2307.38 61,2323 L61,2496 C61,2517.97 64.45,2542.35 61.816,2564 C60.834,2572.07 54.416,2581.9 45.005,2578.26 C37.85,2575.49 36.759,2566.65 37.039,2560 C37.899,2539.61 39,2519.49 39,2499 L39,2283 C39,2264.19 28.299,2219.8 55,2216.29 C66.292,2215.142 59.475,2215.677 75.484,2215.17 z" fill="#000000"/>
    <path d="M194.938,2214.949 C204.347,2214.695 213.639,2216.343 223,2216.96 C236.92,2217.57 251.02,2216 265,2216 C274.475,2216 285.357,2215.02 292.671,2222.33 C307.963,2237.61 297.592,2268.25 297.129,2287 C296.882,2296.98 299.754,2307.02 299.946,2317 C300.139,2327.01 297.079,2337.01 297.079,2347 C297.079,2356.36 299.552,2365.67 299.961,2375 C301.088,2400.74 300.846,2427.35 299.09,2453 C296.907,2484.88 298.44,2518.17 300,2550 C300.447,2559.13 303.154,2578.08 289,2578.85 C281.841,2579.24 277.558,2573.23 275.789,2567 C272.465,2555.31 276,2540.12 276,2528 C276,2498.29 276.288,2468.65 277.015,2439 C277.322,2426.47 280.77,2414.58 279.285,2402 C277.696,2388.53 282.021,2372.54 269.907,2362.53 C259.507,2353.94 243.078,2359.22 231,2359.91 C221.639,2360.44 212.502,2359.22 203,2360.17 C193.947,2361.07 180.014,2361.6 177.395,2350 C173.941,2334.69 192.136,2334.95 202,2335 C214.444,2335.06 227.557,2335.24 240,2336.09 C246.858,2336.56 254.151,2338.63 261,2337.56 C269.879,2336.17 278.359,2329.39 279.442,2320 C280.774,2308.45 267.488,2298.67 257,2298.26 C238.151,2297.54 218.104,2302 199,2302 C190.383,2302 179.76,2300.12 177.598,2290 C175.034,2278 188.474,2275.81 197,2276.01 C211.904,2276.38 227.18,2277 242,2278.09 C251.431,2278.78 261.565,2280.76 269.91,2274.89 C291.4,2259.78 269.791,2236.73 250,2238.09 L209,2240.09 C201.126,2240.63 192.492,2242.56 185.004,2238.95 C170.67,2232.04 177.941,2217.01 191,2215.29 L194.938,2214.949 z" fill="#000000"/>
    <path d="M233.807,2395.206 C236.851,2395.419 237.599,2395.285 240.499,2396.209 C247.03,2398.29 254.349,2404.922 252.852,2412.513 C251.654,2418.587 245.33,2420.721 240,2421.7 C230.474,2423.11 220.605,2420.78 211,2421.01 C202.961,2421.21 194.85,2423.45 187.001,2420.44 C178.258,2417.08 173.709,2405.13 182.109,2398.65 C189.184,2393.19 201.832,2396.35 210,2396.91 C217.342,2397.41 224.714,2395.98 232,2395.3 L233.807,2395.206 z" fill="#000000"/>
    <path d="M88.882,2057.44 C90.969,2057.638 91.698,2057.427 93.459,2058.621 C96.268,2060.526 97.381,2064.363 97.984,2067.494 C99.243,2074.035 98.831,2085.67 102.43,2090.91 C110.359,2100.73 124.825,2095.36 133.671,2103.53 C144.125,2113.19 139.228,2131.41 140.09,2144 C140.494,2149.91 142.123,2156.08 141.532,2162 C140.958,2167.75 139.286,2175.52 132.96,2177.49 C123.371,2180.46 118.659,2170.75 117.478,2163 C115.468,2149.8 129.265,2127.73 109,2121.66 C101.17,2119.31 95.185,2126.92 94.529,2134 C93.48,2145.33 100.315,2155.39 97.496,2167 C96.252,2172.13 93.092,2177.47 87.004,2176.73 C80.48,2175.94 78.568,2168.42 77.617,2163 C75.674,2151.93 89.675,2124.53 70.999,2120.48 C65.283,2119.24 60.181,2124.39 57.839,2129 C51.856,2140.79 60.664,2152.82 58.381,2165 C57.011,2172.31 52.782,2179.99 44.015,2177.57 C37.155,2175.67 37.009,2167.81 37,2162 L38,2123 C38,2116.47 37.241,2109.28 42.225,2104.21 C50.941,2095.35 66.494,2102.03 74.351,2091.9 C80.761,2083.63 73.159,2062.86 84.044,2058.6 C86.791,2057.656 85.194,2058.105 88.882,2057.44 z" fill="#000000"/>
    <path d="M247.826,2057.705 C249.885,2058.026 250.606,2057.883 252.328,2059.085 C254.992,2060.945 256.119,2064.471 256.708,2067.496 C258.019,2074.224 257.353,2084.214 260.993,2089.91 C268.867,2100.61 283.645,2095.06 292.895,2103.34 C304.69,2113.9 301.627,2146.29 300.961,2161 C300.677,2167.26 298.896,2175.5 291.996,2177.42 C283.212,2179.87 277.73,2171.75 277.093,2164 C275.999,2150.67 287.577,2128.62 269,2122.19 C261.961,2119.75 255.308,2125.34 253.724,2132 C251.224,2142.51 259.305,2153.13 257.699,2164 C256.85,2169.75 253.201,2177.82 246.001,2176.47 C239.586,2175.27 237.313,2167.61 237.04,2162 C236.485,2150.58 248,2125.2 229.996,2121.03 C223.863,2119.61 218.294,2124.83 215.97,2130 C210.843,2141.41 219.613,2152.38 217.535,2164 C216.335,2170.72 212.439,2179.59 204.001,2177.41 C198.273,2175.93 195.635,2170.44 195.079,2165 C193.939,2153.83 197.159,2143.07 196.946,2132 C196.778,2123.29 193.229,2112.57 200.39,2105.53 C209.746,2096.33 226.278,2102.16 234.146,2090.96 C239.66,2083.1 232.012,2061.63 243.044,2058.43 C245.775,2057.758 244.192,2058.059 247.826,2057.705 z" fill="#000000"/>
    <path d="M111.512,1376.081 C117.353,1376.284 114.868,1375.98 119,1376.67 C140.909,1381.35 134.956,1402.45 136.09,1419 C136.899,1430.82 139.377,1444.17 130.671,1453.91 C114.635,1471.83 90.119,1453.66 71,1459.65 C62.001,1462.47 54.783,1473.86 58.133,1483 C70.331,1516.27 117.948,1478.1 133.597,1508 C138.664,1517.68 136.371,1527.71 136.043,1538 C135.503,1554.93 140.63,1576.09 118,1581.32 C100.286,1585.41 60.967,1566.49 57.228,1596 C55.995,1605.72 64.959,1615.42 74,1617.47 C90.874,1621.29 110.031,1610.8 127,1618.35 C146.032,1626.81 139.567,1652.68 137.424,1669 C136.129,1678.86 137.342,1687.01 129.815,1694.91 C119.968,1705.23 98.923,1701.4 86,1699.95 C76.996,1698.94 68.628,1697.59 62.649,1706 C54.882,1716.93 61.289,1733.61 60.985,1746 C60.126,1781.06 59.946,1816.84 60,1852 C60.019,1864.28 69.536,1896.3 50,1898.77 C33.498,1900.86 37.222,1877.47 38.169,1868 C41.875,1830.93 39,1792.27 39,1755 L40,1630 C40.019,1617.91 37.719,1606.06 38.015,1594 C38.286,1582.93 40.259,1572.15 39.985,1561 C39.765,1552 37.647,1543.03 38.039,1534 C38.576,1521.63 41.186,1509.46 39.715,1497 C37.914,1481.74 39.926,1468.11 39.999,1453 C40.062,1439.89 38,1427.09 38,1414 C38,1404.37 35.556,1390.99 42.394,1383.11 C47.421,1377.32 56.857,1377.04 64,1377 C78.907,1376.93 94.193,1378.03 109,1376.29 L111.512,1376.081 z M90.595,1637.215 C84.698,1636.982 78.822,1637.559 73,1638.44 C55.895,1641.22 53.248,1662.71 64.185,1673.89 C71.126,1680.99 87.68,1681.03 97,1679.56 C114.507,1676.8 129.113,1657.41 111.96,1643.53 C105.832,1638.679 98.106,1637.793 90.595,1637.215 z M93.836,1517.197 L91,1517.43 C83.123,1518.42 72.902,1516.01 66.015,1520.7 C54.488,1528.57 55.066,1547.22 66.043,1555.35 C73.319,1560.74 88.265,1560.78 97,1559.83 C108.711,1558.644 119.018,1550.378 118.172,1537.821 C117.898,1533.746 116.441,1529.748 114.042,1526.442 C108.785,1519.198 102.288,1517.664 93.836,1517.197 z M95.936,1397.448 L93,1397.51 C84.23,1398.06 72.517,1396 65.093,1401.65 C53.824,1410.23 55.542,1428.66 67.004,1436.12 C73.615,1440.43 87.265,1440.38 95,1439.91 C106.672,1439.223 117.629,1431.641 118.223,1419.198 C118.413,1415.213 117.446,1411.166 115.395,1407.736 C110.826,1400.096 104.207,1398.371 95.936,1397.448 z" fill="#000000"/>
    <path d="M270.371,1376.324 C278.188,1376.379 285.379,1377.206 291.815,1381.93 C299.836,1388.58 300,1399.48 300,1409 L300,1469 C300,1492.59 300.993,1516.43 299.961,1540 C299.535,1549.71 296.903,1559.24 297.004,1569 C297.1,1578.39 299.756,1587.62 299.985,1597 C301.444,1656.55 300.473,1716.48 299.015,1776 C298.255,1807 297.297,1839.14 300,1870 C300.848,1879.68 303.022,1897.2 289,1898.58 C280.512,1899.41 275.967,1891.3 275.174,1884 C273.219,1866.03 276,1846.21 276,1828 C276,1803.63 275.975,1779.31 277.039,1755 C277.421,1746.3 279.992,1737.74 279.992,1729 C279.992,1706.69 275.737,1684.47 276.004,1662 C276.2,1645.52 278.227,1629.52 278.019,1613 C277.932,1606.17 280.233,1599.64 277.517,1593 C267.979,1569.66 234.383,1581.46 215,1580.99 C207.076,1580.79 198.681,1577.43 191,1580.48 C182.201,1583.97 170.711,1603.15 160.34,1594.35 C150.877,1586.31 159.458,1570.76 160.711,1561 C161.319,1556.26 160.13,1551.72 160.015,1547 C159.42,1522.73 156.716,1498.2 157.004,1474 C157.187,1458.64 160,1443.4 160,1428 C160,1415.32 153.943,1392.32 164.329,1382.68 C171.557,1375.98 182.943,1378 192,1378 C213.406,1378 235.746,1379.79 257,1377.29 C264.221,1376.505 259.771,1376.915 270.371,1376.324 z M252.284,1398.193 L250,1398.42 C236.973,1400.15 223.139,1401.08 210,1399.83 C201.148,1398.99 190.037,1396.77 183.225,1404.11 C176.296,1411.57 178.647,1422.92 178.871,1432 C179.236,1446.77 179.065,1461.12 179.907,1476 C180.759,1491.06 178.891,1507.82 178.545,1523 C178.352,1531.46 176.279,1541.1 180.442,1549 C189.433,1566.05 212.263,1556.15 227,1557.09 C237.031,1557.73 248.02,1561.13 258,1559.56 C268.424,1557.92 276.497,1551.77 278.532,1541 C282.688,1519.01 276.476,1495.98 277.015,1474 L278.029,1434 C278.029,1427 279.677,1420.94 277.402,1414 C272.881,1401.766 264.629,1398.221 252.284,1398.193 z M226.045,1494.139 C233.552,1494.033 241.259,1494.335 247.985,1498.01 C261.099,1506.21 251.671,1518.65 240,1520.9 C229.927,1522.85 214.78,1523.67 206.015,1517.35 C195.218,1509.57 201.333,1497.04 213,1495.3 C217.317,1494.581 221.685,1494.407 226.045,1494.139 z M231.74,1435.031 C236.659,1435.224 241.547,1435.911 246,1438.09 C257.736,1444.77 254.57,1458.41 242,1461.32 C232.917,1463.42 215.055,1464.27 207.043,1459.01 C197.138,1452.49 200.675,1438.38 212,1436.33 C216.133,1435.619 220.322,1435.183 224.513,1435.033 C226.921,1434.947 229.331,1435.031 231.74,1435.031 z" fill="#000000"/>
    <path d="M197.127,1614.376 C203.49,1614.852 209.58,1616.778 215.872,1617.708 C216.907,1617.861 217.957,1617.876 219,1617.96 C226.981,1618.21 235.083,1614.76 243,1616.68 C247.945,1617.88 253.056,1621.6 253.728,1627 C254.934,1636.68 243.18,1643.7 240.133,1652 C237.013,1660.5 240.304,1670.06 231.957,1676.36 C219.112,1686.06 205.52,1675.6 192,1679.16 C183.593,1681.38 174.555,1690.67 176.779,1700 C184.986,1734.43 224.459,1708.26 245.999,1717.97 C257.642,1723.22 255.821,1737.49 244,1741.2 C237.378,1743.27 229.719,1741.7 223,1741.07 C206.55,1739.55 171.796,1746.65 160.499,1731.96 C152.02,1720.93 158.065,1705.34 158.91,1693 C159.532,1683.92 157.083,1674.06 162.388,1666.01 C174.752,1647.27 202.416,1672.41 212.678,1651 C220.266,1635.16 189.523,1638.6 183.343,1633.2 C173.619,1624.7 184.718,1614.95 194,1614.38 L197.127,1614.376 z" fill="#000000"/>
    <path d="M278.957,677.161 C289.682,677.523 304.285,683.636 295.486,695.895 C290.421,702.423 282.381,702 275,702 C259.803,701.999 232.84,693.473 221.214,706.094 C212.263,715.811 220.539,731.363 219.675,743 C217.478,772.614 220,802.367 220,832 C220,842.344 222.69,853.819 220.481,864 C216.196,883.754 197.102,874.162 185.094,882.854 C172.837,891.726 174.055,928.512 187.001,935.911 C195.944,941.021 211.978,938 222,938 C235.694,938 257.033,942.873 268.985,935.03 C282.343,926.265 277.606,912.921 277.039,900 C275.942,874.984 273.797,847.938 276.17,823 C277.853,805.311 272.986,787.375 275.185,770 C276.181,762.135 283.09,756.708 290.999,759.742 C306.995,765.879 299.001,791.489 299,804 L300,909 C300,921.763 303.479,940.605 296.633,951.96 C290.612,961.948 277.083,961.116 267,960.996 C248.59,960.777 229.397,961.171 211,959.911 C202.075,959.299 190.428,956.4 183.109,963.225 C176.548,969.342 178.615,977.164 178.961,985 C179.626,1000.05 180.006,1014.93 180,1030 C179.995,1043.22 172.661,1063.18 184.185,1073.32 C196.656,1084.3 218.813,1077.37 234,1078.04 C243.182,1078.44 252.859,1080.62 262,1078.47 C268.563,1076.93 273.756,1072.1 276.471,1066 C283.429,1050.37 273.776,1030.46 275.174,1014 C275.813,1006.48 279.29,996.275 289,998.844 C307.011,1003.61 300,1034.54 300,1048 C300,1061.75 296.908,1075.32 297.005,1089 C297.096,1101.97 300.391,1115 300.961,1128 C301.678,1144.39 300,1160.65 300,1177 C300,1191.87 303.787,1214.89 285,1220.07 C274.564,1222.95 262.584,1220.5 252,1220.04 C236.643,1219.37 221.332,1220.14 206,1219.09 C171.184,1216.7 135.784,1220 101,1220 C85.658,1220 53.22,1227.12 42.393,1213.96 C35.534,1205.62 37.984,1192.05 38,1182 C38.043,1154.91 38.059,1127.04 39.91,1100 C41.183,1081.42 38.772,1062.54 37.961,1044 C37.638,1036.64 35.32,1027.57 40.653,1021.23 C47.343,1013.28 57.159,1020.81 60.069,1028 C66.06,1042.79 52.445,1059.63 64.224,1072.96 C72.062,1081.82 84.62,1078.8 95,1078.09 C114.229,1076.77 152.161,1088.64 158.319,1062 C159.938,1055 158.035,1048.03 158.001,1041 L158.001,992 C158.044,983.046 160.777,973.785 154.606,966.015 C145.662,954.755 132.256,958.664 120,959.83 C103.289,961.421 85.789,960 69,960 C61.516,960 52.68,961.165 46.015,956.995 C34.217,949.612 37.724,928.857 38.015,917 C38.944,879.056 39.015,841.021 39,803 C38.996,791.872 31.508,765.569 44.015,759.18 C51.308,755.454 58.526,762.539 60.751,769 C65.065,781.529 61,799.751 61,813 C61,841.457 62.854,870.615 60.91,899 C60.024,911.938 55.184,926.405 68.004,935.347 C79.318,943.239 98.182,936.274 111,937.09 C121.865,937.782 141.564,942.013 150.985,935.347 C162.141,927.454 162.125,901.162 156.084,890.001 C147.455,874.057 122.576,883.669 117.305,866 C113.214,852.287 117.341,834.152 117.961,820 C119.08,794.429 118.034,768.502 117.04,743 C116.482,728.671 125.257,707.892 107,701.094 C93.274,695.983 75.403,701.93 61,701.999 C52.817,702.039 44.623,701.914 39.858,693.996 C36.024,687.626 40.013,680.008 47.001,678.394 C60.632,675.246 77.969,679 92,679 C153.208,679 215.961,684.488 277,677.286 L278.957,677.161 z M176.316,1096.695 C165.932,1097.011 170.364,1096.661 163,1097.42 C140.812,1100.34 118.365,1100.26 96,1100 C87.199,1099.89 76.183,1095.32 68.015,1100.09 C62.525,1103.29 59.312,1109.82 58.785,1116 C57.686,1128.9 60.021,1142.93 60,1156 C59.988,1163.57 57.501,1171.5 58.304,1179 C59.013,1185.62 62.122,1193.09 68.04,1196.63 C75.911,1201.34 85.45,1199.48 94,1199.1 C103.125,1198.7 112.774,1199.96 122,1200 C152.303,1200.15 182.689,1200.36 213,1200 C227.076,1199.84 242.057,1201.57 256,1199.57 C288.05,1194.97 277.052,1164.54 278.039,1142 C278.613,1128.91 283.498,1114.77 272.699,1104.33 C262.715,1094.67 247.26,1098.66 235,1099.83 C219.909,1101.276 204.831,1098.635 189.834,1097.427 C185.336,1097.064 180.822,1096.939 176.316,1096.695 z M167.173,698.234 C162.754,698.295 158.365,698.794 154,699.44 C130.269,703.255 140,728.568 140,745 C140,768.976 140.573,793.032 139.985,817 C139.75,826.603 135.347,837.686 139.367,847 C145.17,860.442 163.185,862.624 176,860.56 C207.282,855.523 197,825.485 197,803 C197,780.734 196.065,758.242 197.039,736 C197.463,726.323 201.774,715.71 195.351,707.043 C188.688,698.745 176.93,698.382 167.173,698.234 z" fill="#000000"/>
    <path d="M167.529,18.984 C172.783,19.453 176.456,23.203 178.196,28 C182.151,40.593 176.141,54.608 194,58.481 C200.224,59.831 206.712,58.01 213,58 L264,57 C272.944,57 284.52,55.16 291.906,61.394 C300.173,68.373 300,79.199 300,89 C300,108.253 297.869,126.879 297.039,146 C296.381,161.159 300,176.671 300,192 L300,370 C300,397.309 299.373,424.771 299.985,452 C300.213,462.128 298.512,471.808 299.715,482 C300.918,492.204 305.083,514.71 290.999,517.968 C281.35,520.2 275.017,511.667 274.177,503 C273.328,494.223 276.309,484.779 276.91,476 C277.77,463.446 277,450.584 277,438 L277,225 C277,202.973 287.852,162.748 257,158.3 C244.055,156.434 223.181,156.806 218.789,172 C216.131,181.197 219.313,191.689 219.791,201 C220.63,217.341 219,234.525 219,251 L219,433 C219,455.841 221.717,479.365 220.957,502 C220.704,509.544 216.894,518.717 208,518.514 C200.089,518.333 195.406,511.279 195.04,504 C193.941,482.139 197,459.121 197,437 L197,231 C197,219.366 196.53,207.622 197.039,196 C197.633,182.432 201.358,169.601 187,161.366 C172.259,152.912 142.131,155.447 138.468,175 C137.06,182.514 139.8,190.446 139.985,198 C140.434,216.31 140,234.684 140,253 L140,436 C140,458.61 142.825,482.597 140.906,505 C140.284,512.26 134.162,520.538 126,518.413 C118.185,516.378 115.161,508.251 115.015,501 C114.607,480.64 118,459.632 118,439 L118,225 L117.015,198 C117.397,181.277 121.769,162.13 99,158.326 C87.04,156.327 66.277,155.482 61.13,169.001 C57.736,177.913 60.561,186.872 60.961,196 C61.702,212.932 61,230.05 61,247 L61,433 C61,456.152 63.087,479.987 61.96,503 C61.582,510.709 56.803,519.324 48,518.848 C30.815,517.919 38.508,488.346 38.961,478 C40.908,433.522 39,388.526 39,344 L39,198 C39,180.535 41.573,162.306 40.486,145 C39.275,125.719 38,106.327 38,87 C38,78.455 37.31,69.026 43.39,62.109 C50.518,54 65.541,56.93 75,57.83 C88.575,59.122 102.398,57.158 116,58.089 C125.204,58.719 137.233,61.298 146,57.347 C153.57,53.936 157.599,45.961 157.961,38 C158.236,31.954 156.874,22.379 164.044,19.604 C165.958,19.002 164.811,19.279 167.529,18.984 z M79.124,78.941 C74.328,79.212 76.365,78.991 73,79.444 C53.587,82.647 52.647,128.915 69.015,136.583 C80.166,141.806 98.605,136.672 111,138.155 C127.291,140.104 142.806,137.001 159,137 C182.999,136.999 206.047,139.459 230,137.17 C242.06,136.017 255.536,141.715 267,136.775 C286.977,128.168 283.14,84.256 262,79.67 C253.533,77.833 245.424,80.592 237,80.961 C222.416,81.599 207.598,81.169 193,80.996 L107,81 C99.807,80.972 92.693,79.695 85.534,79.172 C83.402,79.016 81.261,79.018 79.124,78.941 z" fill="#000000"/>
  </g>
</svg>
