<?xml version="1.0" encoding="UTF-8"?>
<!DOCTYPE svg PUBLIC "-//W3C//DTD SVG 1.1//EN" "http://www.w3.org/Graphics/SVG/1.1/DTD/svg11.dtd">
<svg version="1.1" xmlns="http://www.w3.org/2000/svg" xmlns:xlink="http://www.w3.org/1999/xlink" x="0" y="0" width="64" height="64" viewBox="0, 0, 296.339, 296.339">
  <g id="Layer_1" transform="translate(-107.02, -433.4)">
    <g>
      <path d="M124.748,438.9 L386.632,438.9 C393.385,438.9 398.86,444.375 398.86,451.129 L398.86,713.012 C398.86,719.765 393.385,725.24 386.632,725.24 L124.748,725.24 C117.995,725.24 112.52,719.765 112.52,713.012 L112.52,451.129 C112.52,444.375 117.995,438.9 124.748,438.9 z" fill="none"/>
      <path d="M124.748,438.9 L386.632,438.9 C393.385,438.9 398.86,444.375 398.86,451.129 L398.86,713.012 C398.86,719.765 393.385,725.24 386.632,725.24 L124.748,725.24 C117.995,725.24 112.52,719.765 112.52,713.012 L112.52,451.129 C112.52,444.375 117.995,438.9 124.748,438.9 z" fill-opacity="0" stroke="#000000" stroke-width="2"/>
    </g>
    <g>
      <path d="M166.18,496.285 L177.149,496.285 L177.149,505.601 L169.344,520.753 L162.313,520.789 L166.18,505.601 z" fill="#000000"/>
      <path d="M235.02,515.656 L235.02,521.632 L191.989,521.632 L191.989,515.656 z" fill="#000000"/>
      <path d="M290.223,496.285 L301.192,496.285 L301.192,505.601 L293.387,520.753 L286.356,520.789 L290.223,505.601 z" fill="#000000"/>
      <path d="M359.063,515.656 L359.063,521.632 L316.031,521.632 L316.031,515.656 z" fill="#000000"/>
      <path d="M160.942,532.088 L188.574,591.256 L181.895,591.256 L154.227,532.088 z" fill="#000000"/>
      <path d="M223.242,532.088 L229.922,532.088 L202.289,591.256 L195.574,591.256 z" fill="#000000"/>
      <path d="M277.778,566.998 L314.938,566.998 L314.938,572.939 L277.778,572.939 z M277.778,550.439 L314.938,550.439 L314.938,556.381 L277.778,556.381 z" fill="#000000"/>
      <path d="M319.125,566.998 L356.285,566.998 L356.285,572.939 L319.125,572.939 z M319.125,550.439 L356.285,550.439 L356.285,556.381 L319.125,556.381 z" fill="#000000"/>
      <path d="M181.895,607.688 L188.574,607.688 L160.942,666.856 L154.227,666.856 z" fill="#000000"/>
      <path d="M202.289,607.688 L229.922,666.856 L223.242,666.856 L195.574,607.688 z" fill="#000000"/>
      <path d="M294.477,601.957 L309.383,601.957 L309.383,606.985 L300.946,606.985 L300.946,661.125 L309.383,661.125 L309.383,666.153 L294.477,666.153 z" fill="#000000"/>
      <path d="M341.344,601.957 L341.344,666.153 L326.438,666.153 L326.438,661.125 L334.875,661.125 L334.875,606.985 L326.438,606.985 L326.438,601.957 z" fill="#000000"/>
    </g>
  </g>
</svg>
