<?xml version="1.0" encoding="UTF-8"?>
<!DOCTYPE svg PUBLIC "-//W3C//DTD SVG 1.1//EN" "http://www.w3.org/Graphics/SVG/1.1/DTD/svg11.dtd">
<svg version="1.1" xmlns="http://www.w3.org/2000/svg" xmlns:xlink="http://www.w3.org/1999/xlink" x="0" y="0" width="51" height="49.988" viewBox="0, 0, 51.307, 50.289">
  <g id="Layer_2" transform="translate(-409.368, -552.732)">
    <path d="M423.921,556.98 L460.175,577.912 L447.123,600.52 L410.868,579.588 L423.921,556.98 z" fill-opacity="0" stroke="#000000" stroke-width="1" stroke-linecap="round" stroke-linejoin="round"/>
    <path d="M420.217,563.395 L454.037,582.921" fill-opacity="0" stroke="#000000" stroke-width="1"/>
    <path d="M426.645,564.17 C424.953,563.193 423.854,561.93 424.19,561.348 C424.526,560.766 426.169,561.087 427.861,562.064 C429.553,563.041 430.653,564.304 430.317,564.886 C429.981,565.467 428.337,565.147 426.645,564.17 z" fill-opacity="0" stroke="#000000" stroke-width="1"/>
    <path d="M417.069,581.292 C415.377,580.315 414.277,579.052 414.613,578.47 C414.949,577.889 416.593,578.209 418.285,579.186 C419.977,580.163 421.076,581.426 420.74,582.008 C420.404,582.59 418.761,582.269 417.069,581.292 z" fill-opacity="0" stroke="#000000" stroke-width="1"/>
    <path d="M418.816,577.73 C417.124,576.753 416.025,575.49 416.361,574.908 C416.697,574.327 418.34,574.647 420.032,575.624 C421.724,576.601 422.824,577.864 422.488,578.446 C422.152,579.027 420.508,578.707 418.816,577.73 z" fill-opacity="0" stroke="#000000" stroke-width="1"/>
    <path d="M420.932,574.065 C419.24,573.088 418.141,571.825 418.477,571.243 C418.812,570.662 420.456,570.982 422.148,571.959 C423.84,572.936 424.94,574.199 424.604,574.781 C424.268,575.362 422.624,575.042 420.932,574.065 z" fill-opacity="0" stroke="#000000" stroke-width="1"/>
    <path d="M431.021,574.333 C429.329,573.356 428.23,572.093 428.566,571.511 C428.902,570.93 430.545,571.25 432.237,572.227 C433.929,573.204 435.029,574.467 434.693,575.049 C434.357,575.63 432.713,575.31 431.021,574.333 z" fill-opacity="0" stroke="#000000" stroke-width="1"/>
    <path d="M424.52,585.594 C422.828,584.617 421.728,583.354 422.064,582.772 C422.4,582.191 424.044,582.511 425.736,583.488 C427.428,584.465 428.527,585.728 428.191,586.31 C427.856,586.892 426.212,586.571 424.52,585.594 z" fill-opacity="0" stroke="#000000" stroke-width="1"/>
    <path d="M426.499,582.166 C424.807,581.189 423.708,579.926 424.044,579.344 C424.379,578.762 426.023,579.083 427.715,580.06 C429.407,581.036 430.507,582.3 430.171,582.882 C429.835,583.463 428.191,583.143 426.499,582.166 z" fill-opacity="0" stroke="#000000" stroke-width="1"/>
    <path d="M434.328,568.606 C432.636,567.629 431.537,566.365 431.873,565.784 C432.208,565.202 433.852,565.522 435.544,566.499 C437.236,567.476 438.336,568.74 438,569.321 C437.664,569.903 436.02,569.582 434.328,568.606 z" fill-opacity="0" stroke="#000000" stroke-width="1"/>
    <path d="M432.545,590.227 C430.853,589.251 429.753,587.987 430.089,587.406 C430.425,586.824 432.069,587.144 433.761,588.121 C435.453,589.098 436.552,590.361 436.216,590.943 C435.88,591.525 434.237,591.204 432.545,590.227 z" fill-opacity="0" stroke="#000000" stroke-width="1"/>
    <path d="M442.353,573.239 C440.661,572.262 439.562,570.998 439.897,570.417 C440.233,569.835 441.877,570.156 443.569,571.132 C445.261,572.109 446.361,573.373 446.025,573.954 C445.689,574.536 444.045,574.216 442.353,573.239 z" fill-opacity="0" stroke="#000000" stroke-width="1"/>
    <path d="M449.945,577.622 C448.253,576.645 447.154,575.382 447.489,574.8 C447.825,574.218 449.469,574.539 451.161,575.516 C452.853,576.493 453.952,577.756 453.617,578.338 C453.281,578.919 451.637,578.599 449.945,577.622 z" fill-opacity="0" stroke="#000000" stroke-width="1"/>
    <path d="M439.046,578.966 C437.354,577.99 436.255,576.726 436.591,576.144 C436.926,575.563 438.57,575.883 440.262,576.86 C441.954,577.837 443.054,579.1 442.718,579.682 C442.382,580.264 440.738,579.943 439.046,578.966 z" fill-opacity="0" stroke="#000000" stroke-width="1"/>
    <path d="M436.64,583.134 C434.948,582.157 433.849,580.894 434.184,580.312 C434.52,579.731 436.164,580.051 437.856,581.028 C439.548,582.005 440.647,583.268 440.312,583.85 C439.976,584.431 438.332,584.111 436.64,583.134 z" fill-opacity="0" stroke="#000000" stroke-width="1"/>
    <path d="M442.659,590.51 C440.967,589.533 439.867,588.27 440.203,587.688 C440.539,587.106 442.183,587.427 443.875,588.404 C445.567,589.38 446.666,590.644 446.33,591.225 C445.994,591.807 444.351,591.487 442.659,590.51 z" fill-opacity="0" stroke="#000000" stroke-width="1"/>
    <path d="M444.406,586.948 C442.714,585.971 441.615,584.707 441.951,584.126 C442.286,583.544 443.93,583.865 445.622,584.841 C447.314,585.818 448.414,587.082 448.078,587.663 C447.742,588.245 446.098,587.924 444.406,586.948 z" fill-opacity="0" stroke="#000000" stroke-width="1"/>
    <path d="M446.522,583.283 C444.83,582.306 443.731,581.042 444.067,580.461 C444.402,579.879 446.046,580.2 447.738,581.176 C449.43,582.153 450.53,583.417 450.194,583.998 C449.858,584.58 448.214,584.26 446.522,583.283 z" fill-opacity="0" stroke="#000000" stroke-width="1"/>
    <path d="M429.077,559.958 L427.861,562.064" fill-opacity="0" stroke="#000000" stroke-width="1"/>
    <path d="M426.645,564.17 L422.148,571.959" fill-opacity="0" stroke="#000000" stroke-width="1"/>
    <path d="M420.932,574.065 L420.032,575.624" fill-opacity="0" stroke="#000000" stroke-width="1"/>
    <path d="M418.816,577.73 L418.053,579.052" fill-opacity="0" stroke="#000000" stroke-width="1"/>
    <path d="M417.934,581.178 L417.109,582.607" fill-opacity="0" stroke="#000000" stroke-width="1"/>
    <path d="M435.544,566.499 L436.76,564.393" fill-opacity="0" stroke="#000000" stroke-width="1"/>
    <path d="M434.328,568.606 L432.237,572.227" fill-opacity="0" stroke="#000000" stroke-width="1"/>
    <path d="M431.021,574.333 L427.715,580.06" fill-opacity="0" stroke="#000000" stroke-width="1"/>
    <path d="M426.499,582.166 L425.736,583.488" fill-opacity="0" stroke="#000000" stroke-width="1"/>
    <path d="M424.52,585.594 L423.707,587.001" fill-opacity="0" stroke="#000000" stroke-width="1"/>
    <path d="M444.785,569.026 L443.569,571.132" fill-opacity="0" stroke="#000000" stroke-width="1"/>
    <path d="M442.184,573.532 L440.262,576.86" fill-opacity="0" stroke="#000000" stroke-width="1"/>
    <path d="M438.916,579.192 L437.856,581.028" fill-opacity="0" stroke="#000000" stroke-width="1"/>
    <path d="M436.64,583.134 L433.761,588.121" fill-opacity="0" stroke="#000000" stroke-width="1"/>
    <path d="M432.545,590.227 L431.886,591.368" fill-opacity="0" stroke="#000000" stroke-width="1"/>
    <path d="M450.927,575.518 L452.141,573.411" fill-opacity="0" stroke="#000000" stroke-width="1"/>
    <path d="M449.945,577.622 L447.852,581.242" fill-opacity="0" stroke="#000000" stroke-width="1"/>
    <path d="M446.638,583.35 L445.738,584.908" fill-opacity="0" stroke="#000000" stroke-width="1"/>
    <path d="M444.521,587.014 L443.758,588.336" fill-opacity="0" stroke="#000000" stroke-width="1"/>
    <path d="M442.543,590.443 L439.324,596.018" fill-opacity="0" stroke="#000000" stroke-width="1"/>
    <path d="M457.574,576.86 L444.521,599.468" fill-opacity="0" stroke="#000000" stroke-width="1"/>
  </g>
</svg>
