<?xml version="1.0" encoding="UTF-8"?>
<!DOCTYPE svg PUBLIC "-//W3C//DTD SVG 1.1//EN" "http://www.w3.org/Graphics/SVG/1.1/DTD/svg11.dtd">
<svg version="1.1" xmlns="http://www.w3.org/2000/svg" xmlns:xlink="http://www.w3.org/1999/xlink" x="0" y="0" width="49.988" height="49.988" viewBox="0, 0, 50.289, 50.289">
  <g id="Layer_2" transform="translate(-356.295, -659.701)">
    <path d="M360.237,671.869 L399.618,671.869 L399.618,701.463 L360.237,701.463 L360.237,671.869 z" fill-opacity="0" stroke="#000000" stroke-width="1" stroke-linecap="round" stroke-linejoin="round"/>
    <path d="M399.618,671.869 L404.158,671.869 L404.158,701.463 L399.618,701.463 L399.618,671.869 z" fill-opacity="0" stroke="#000000" stroke-width="1" stroke-linecap="round" stroke-linejoin="round"/>
    <path d="M399.618,668.406 L404.158,668.406" fill-opacity="0" stroke="#000000" stroke-width="1" stroke-linecap="round" stroke-linejoin="round"/>
    <path d="M399.618,704.992 L404.158,704.992" fill-opacity="0" stroke="#000000" stroke-width="1" stroke-linecap="round" stroke-linejoin="round"/>
    <path d="M401.888,668.406 L401.888,671.61" fill-opacity="0" stroke="#000000" stroke-width="1" stroke-linecap="round" stroke-linejoin="round"/>
    <path d="M401.888,704.992 L401.888,701.463" fill-opacity="0" stroke="#000000" stroke-width="1" stroke-linecap="round" stroke-linejoin="round"/>
    <path d="M376.181,695.224 L380.661,690.743" fill-opacity="0" stroke="#000000" stroke-width="1" stroke-linecap="round"/>
    <path d="M376.161,690.743 L380.661,695.243" fill-opacity="0" stroke="#000000" stroke-width="1" stroke-linecap="round"/>
    <path d="M387.316,687.273 L391.797,682.793" fill-opacity="0" stroke="#000000" stroke-width="1" stroke-linecap="round"/>
    <path d="M387.297,682.793 L391.797,687.293" fill-opacity="0" stroke="#000000" stroke-width="1" stroke-linecap="round"/>
    <path d="M366.437,681.149 L370.918,676.669" fill-opacity="0" stroke="#000000" stroke-width="1" stroke-linecap="round"/>
    <path d="M366.418,676.669 L370.918,681.169" fill-opacity="0" stroke="#000000" stroke-width="1" stroke-linecap="round"/>
  </g>
</svg>
