<?xml version="1.0" encoding="UTF-8"?>
<!DOCTYPE svg PUBLIC "-//W3C//DTD SVG 1.1//EN" "http://www.w3.org/Graphics/SVG/1.1/DTD/svg11.dtd">
<svg version="1.1" xmlns="http://www.w3.org/2000/svg" xmlns:xlink="http://www.w3.org/1999/xlink" x="0" y="0" width="49.988" height="50.624" viewBox="0, 0, 50.289, 50.93">
  <g id="Layer_2" transform="translate(-409.62, -659.381)">
    <path d="M433.271,693.288 L417.739,666.386" fill-opacity="0" stroke="#000000" stroke-width="1" stroke-linecap="round" stroke-linejoin="round"/>
    <path d="M434.647,691.86 L419.389,665.434" fill-opacity="0" stroke="#000000" stroke-width="1" stroke-linecap="round" stroke-linejoin="round"/>
    <path d="M436.277,690.872 L421.04,664.481" fill-opacity="0" stroke="#000000" stroke-width="1" stroke-linecap="round" stroke-linejoin="round"/>
    <path d="M437.658,689.454 L422.69,663.528" fill-opacity="0" stroke="#000000" stroke-width="1" stroke-linecap="round" stroke-linejoin="round"/>
    <path d="M432.816,694.209 L439.267,689.371 L442.531,692.251 L448.739,705.777 L441.753,709.81 L432.816,694.209 z" fill-opacity="0" stroke="#000000" stroke-width="1" stroke-linecap="round" stroke-linejoin="round"/>
    <path d="M416.874,668.592 L424.794,664.019 L428.565,670.55 L420.645,675.123 L416.874,668.592 z" fill-opacity="0" stroke="#000000" stroke-width="1" stroke-linecap="round" stroke-linejoin="round"/>
    <path d="M439.008,660.881 L448.204,695.201" fill-opacity="0" stroke="#000000" stroke-width="1" stroke-linecap="round" stroke-linejoin="round"/>
    <path d="M437.669,662.98 L441.217,662.029 L443.348,669.984 L439.8,670.935 L437.669,662.98 z" fill-opacity="0" stroke="#000000" stroke-width="1" stroke-linecap="round" stroke-linejoin="round"/>
    <path d="M446.725,696.174 L450.273,695.224 L450.805,703.587 L446.725,696.174 z" fill-opacity="0" stroke="#000000" stroke-width="1" stroke-linecap="round" stroke-linejoin="round"/>
  </g>
</svg>
