<?xml version="1.0" encoding="UTF-8"?>
<!DOCTYPE svg PUBLIC "-//W3C//DTD SVG 1.1//EN" "http://www.w3.org/Graphics/SVG/1.1/DTD/svg11.dtd">
<svg version="1.1" xmlns="http://www.w3.org/2000/svg" xmlns:xlink="http://www.w3.org/1999/xlink" x="0" y="0" width="49.988" height="49.988" viewBox="0, 0, 50.289, 50.289">
  <g id="Layer_2" transform="translate(-409.62, -712.894)">
    <path d="M418.672,735.717 L453.235,735.717 L451.749,750.382 L420.038,750.382 L418.672,735.717 z" fill-opacity="0" stroke="#000000" stroke-width="1" stroke-linecap="round" stroke-linejoin="round"/>
    <path d="M422.187,750.382 L425.256,750.382 L425.256,758.762 L422.187,758.762 L422.187,750.382 z" fill-opacity="0" stroke="#000000" stroke-width="1" stroke-linecap="round" stroke-linejoin="round"/>
    <path d="M427.612,750.382 L430.681,750.382 L430.681,758.762 L427.612,758.762 L427.612,750.382 z" fill-opacity="0" stroke="#000000" stroke-width="1" stroke-linecap="round" stroke-linejoin="round"/>
    <path d="M441.561,750.382 L444.63,750.382 L444.63,758.762 L441.561,758.762 L441.561,750.382 z" fill-opacity="0" stroke="#000000" stroke-width="1" stroke-linecap="round" stroke-linejoin="round"/>
    <path d="M446.725,750.382 L449.794,750.382 L449.794,758.762 L446.725,758.762 L446.725,750.382 z" fill-opacity="0" stroke="#000000" stroke-width="1" stroke-linecap="round" stroke-linejoin="round"/>
    <path d="M440.048,750.382 L439.619,735.717" fill-opacity="0" stroke="#000000" stroke-width="1" stroke-linecap="round" stroke-linejoin="round"/>
    <path d="M441.389,719.676 L450.763,719.676 L450.763,729.055 L441.389,729.055 L441.389,719.676 z" fill-opacity="0" stroke="#000000" stroke-width="1" stroke-linecap="round" stroke-linejoin="round"/>
    <path d="M445.078,723.66 L447.564,723.66 L447.564,729.055 L445.078,729.055 L445.078,723.66 z" fill-opacity="0" stroke="#000000" stroke-width="1" stroke-linecap="round" stroke-linejoin="round"/>
    <path d="M421.402,719.676 L430.777,719.676 L430.777,729.055 L421.402,729.055 L421.402,719.676 z" fill-opacity="0" stroke="#000000" stroke-width="1" stroke-linecap="round" stroke-linejoin="round"/>
    <path d="M425.092,723.66 L427.578,723.66 L427.578,729.055 L425.092,729.055 L425.092,723.66 z" fill-opacity="0" stroke="#000000" stroke-width="1" stroke-linecap="round" stroke-linejoin="round"/>
    <path d="M417.835,729.055 L454.33,729.055 L454.33,733.12 L417.835,733.12 L417.835,729.055 z" fill-opacity="0" stroke="#000000" stroke-width="1" stroke-linecap="round" stroke-linejoin="round"/>
    <path d="M420.945,733.12 L420.945,735.717" fill-opacity="0" stroke="#000000" stroke-width="1"/>
    <path d="M451.641,733.12 L451.641,735.717" fill-opacity="0" stroke="#000000" stroke-width="1"/>
  </g>
</svg>
