<?xml version="1.0" encoding="UTF-8"?>
<!DOCTYPE svg PUBLIC "-//W3C//DTD SVG 1.1//EN" "http://www.w3.org/Graphics/SVG/1.1/DTD/svg11.dtd">
<svg version="1.1" xmlns="http://www.w3.org/2000/svg" xmlns:xlink="http://www.w3.org/1999/xlink" x="0" y="0" width="49.988" height="49.988" viewBox="0, 0, 50.289, 50.289">
  <g id="Layer_2" transform="translate(-463.458, -552.732)">
    <path d="M480.116,556.308 L501.869,556.308 L501.869,593.842 L480.116,593.842 L480.116,556.308 z" fill-opacity="0" stroke="#000000" stroke-width="1" stroke-linecap="round" stroke-linejoin="round"/>
    <path d="M480.116,556.449 L487.18,556.449 L487.18,577.299 L480.116,577.299 L480.116,556.449 z" fill-opacity="0" stroke="#000000" stroke-width="1"/>
    <path d="M498.276,556.308 L498.276,596.773" fill-opacity="0" stroke="#000000" stroke-width="1"/>
    <path d="M498.276,564.447 L501.869,564.447" fill-opacity="0" stroke="#000000" stroke-width="1"/>
    <path d="M498.276,585.632 L501.869,585.632" fill-opacity="0" stroke="#000000" stroke-width="1"/>
    <path d="M480.116,593.842 L501.869,593.842 L501.869,596.537 L480.116,596.537 L480.116,593.842 z" fill-opacity="0" stroke="#000000" stroke-width="1" stroke-linecap="round" stroke-linejoin="round"/>
    <path d="M474.828,596.711 L496.581,596.711 L496.581,599.406 L474.828,599.406 L474.828,596.711 z" fill-opacity="0" stroke="#000000" stroke-width="1" stroke-linecap="round" stroke-linejoin="round"/>
    <path d="M474.828,559.287 L480.116,559.287 L480.116,596.537 L474.828,596.537 L474.828,559.287 z" fill-opacity="0" stroke="#000000" stroke-width="1" stroke-linecap="round" stroke-linejoin="round"/>
    <path d="M474.828,559.52 L480.116,559.52 L480.116,580.369 L474.828,580.369 L474.828,559.52 z" fill-opacity="0" stroke="#000000" stroke-width="1"/>
    <path d="M474.828,599.065 L496.581,599.065 L496.581,601.76 L474.828,601.76 L474.828,599.065 z" fill-opacity="0" stroke="#000000" stroke-width="1" stroke-linecap="round" stroke-linejoin="round"/>
    <path d="M493.035,596.773 L493.035,601.76" fill-opacity="0" stroke="#000000" stroke-width="1"/>
  </g>
</svg>
