<?xml version="1.0" encoding="UTF-8"?>
<!DOCTYPE svg PUBLIC "-//W3C//DTD SVG 1.1//EN" "http://www.w3.org/Graphics/SVG/1.1/DTD/svg11.dtd">
<svg version="1.1" xmlns="http://www.w3.org/2000/svg" xmlns:xlink="http://www.w3.org/1999/xlink" x="0" y="0" width="49.988" height="49.988" viewBox="0, 0, 50.289, 50.289">
  <g id="Layer_2" transform="translate(-463.458, -499.57)">
    <path d="M501.512,514.258 L501.512,535.557 C501.512,540.219 498.183,543.998 494.078,543.998 L486.888,543.998 C482.782,543.998 479.454,540.219 479.454,535.557 L479.454,514.258 L501.512,514.258 z" fill-opacity="0" stroke="#000000" stroke-width="1"/>
    <path d="M481.707,511.255 L499.753,511.255 L499.753,514.258 L481.707,514.258 L481.707,511.255 z" fill-opacity="0" stroke="#000000" stroke-width="1"/>
    <path d="M482.728,509.117 L490.978,506.889 L498.732,509.117 L498.732,511.255 L482.728,511.255 L482.728,509.117 z" fill-opacity="0" stroke="#000000" stroke-width="1"/>
    <path d="M487.18,538.953 L490.73,543.998" fill-opacity="0" stroke="#000000" stroke-width="1"/>
    <path d="M490.73,543.998 L494.475,538.953" fill-opacity="0" stroke="#000000" stroke-width="1"/>
    <path d="M490.73,517.217 L486.461,543.998" fill-opacity="0" stroke="#000000" stroke-width="1"/>
    <path d="M490.73,517.217 L495.17,543.998" fill-opacity="0" stroke="#000000" stroke-width="1"/>
    <path d="M479.454,514.258 L490.73,517.217" fill-opacity="0" stroke="#000000" stroke-width="1"/>
    <path d="M490.73,517.217 L501.512,514.258" fill-opacity="0" stroke="#000000" stroke-width="1"/>
    <path d="M481.296,506.386 L484.495,505.529 C485.304,505.312 486.136,505.792 486.353,506.601 L486.353,506.601 C486.569,507.41 486.089,508.242 485.28,508.458 L482.081,509.316 C481.272,509.532 480.441,509.052 480.224,508.243 L480.224,508.243 C480.007,507.434 480.487,506.603 481.296,506.386 z" fill-opacity="0" stroke="#000000" stroke-width="1"/>
    <path d="M497.132,505.529 L500.331,506.386 C501.14,506.603 501.62,507.434 501.404,508.243 L501.404,508.243 C501.187,509.052 500.355,509.532 499.546,509.316 L496.347,508.458 C495.538,508.242 495.058,507.41 495.275,506.601 L495.275,506.601 C495.492,505.792 496.323,505.312 497.132,505.529 z" fill-opacity="0" stroke="#000000" stroke-width="1"/>
  </g>
</svg>
