<?xml version="1.0" encoding="UTF-8"?>
<!DOCTYPE svg PUBLIC "-//W3C//DTD SVG 1.1//EN" "http://www.w3.org/Graphics/SVG/1.1/DTD/svg11.dtd">
<svg version="1.1" xmlns="http://www.w3.org/2000/svg" xmlns:xlink="http://www.w3.org/1999/xlink" x="0" y="0" width="49.988" height="50.399" viewBox="0, 0, 50.289, 50.703">
  <g id="Layer_2" transform="translate(-463.458, -712.48)">
    <path d="M480.704,754.375 L500.262,754.375 L500.262,760.297 L480.704,760.297 L480.704,754.375 z" fill-opacity="0" stroke="#000000" stroke-width="1" stroke-linecap="round" stroke-linejoin="round"/>
    <path d="M480.16,751.239 L500.806,751.239 L504.152,754.375 L476.813,754.375 L480.16,751.239 z" fill-opacity="0" stroke="#000000" stroke-width="1" stroke-linecap="round" stroke-linejoin="round"/>
    <path d="M487.931,756.961 L493.035,756.961 L493.035,760.297 L487.931,760.297 L487.931,756.961 z" fill-opacity="0" stroke="#000000" stroke-width="1" stroke-linecap="round" stroke-linejoin="round"/>
    <path d="M481.614,746.397 L499.352,746.397 L499.352,751.037 L481.614,751.037 L481.614,746.397 z" fill-opacity="0" stroke="#000000" stroke-width="1" stroke-linecap="round" stroke-linejoin="round"/>
    <path d="M481.614,742.858 L499.352,742.858 L502.227,746.397 L478.739,746.397 L481.614,742.858 z" fill-opacity="0" stroke="#000000" stroke-width="1" stroke-linecap="round" stroke-linejoin="round"/>
    <path d="M483.309,738.57 L497.657,738.57 L497.657,742.858 L483.309,742.858 L483.309,738.57 z" fill-opacity="0" stroke="#000000" stroke-width="1" stroke-linecap="round" stroke-linejoin="round"/>
    <path d="M483.309,735.525 L497.657,735.525 L499.982,738.57 L480.983,738.57 L483.309,735.525 z" fill-opacity="0" stroke="#000000" stroke-width="1" stroke-linecap="round" stroke-linejoin="round"/>
    <path d="M484.818,731.403 L496.641,731.403 L496.641,735.525 L484.818,735.525 L484.818,731.403 z" fill-opacity="0" stroke="#000000" stroke-width="1" stroke-linecap="round" stroke-linejoin="round"/>
    <path d="M484.571,728.844 L496.394,728.844 L498.311,731.309 L482.655,731.309 L484.571,728.844 z" fill-opacity="0" stroke="#000000" stroke-width="1" stroke-linecap="round" stroke-linejoin="round"/>
    <path d="M485.796,724.982 L495.17,724.982 L495.17,728.844 L485.796,728.844 L485.796,724.982 z" fill-opacity="0" stroke="#000000" stroke-width="1" stroke-linecap="round" stroke-linejoin="round"/>
    <path d="M490.825,721.785 L496.69,724.982 L484.276,724.982 z" fill-opacity="0" stroke="#000000" stroke-width="1" stroke-linecap="round" stroke-linejoin="round"/>
    <path d="M490.769,713.98 L491.441,721.447 L490.018,721.447 z" fill-opacity="0" stroke="#000000" stroke-width="1" stroke-linecap="round" stroke-linejoin="round"/>
  </g>
</svg>
